<svg width="1920" height="886" viewBox="0 0 1920 886" fill="none" xmlns="http://www.w3.org/2000/svg">
<g clip-path="url(#clip0_1_5317)">
<line x1="-65.7505" y1="1028.84" x2="1982.11" y2="444.229" stroke="#E8E8EA" stroke-opacity="0.5"/>
<line x1="1348.15" y1="1207.85" x2="1929.89" y2="-41.5738" stroke="#E8E8EA" stroke-opacity="0.5"/>
<line x1="-96.2921" y1="1008.16" x2="1898.26" y2="-114.356" stroke="#E8E8EA" stroke-opacity="0.5"/>
<line x1="707.768" y1="1279.48" x2="1919.08" y2="-106.098" stroke="#E8E8EA" stroke-opacity="0.5"/>
<line x1="101.059" y1="-171.698" x2="101.059" y2="1047.5" stroke="#E8E8EA" stroke-opacity="0.5"/>
<line x1="-91.568" y1="-70.6685" x2="1046.84" y2="1207.73" stroke="#E8E8EA" stroke-opacity="0.5"/>
<line x1="377.004" y1="-171.496" x2="-91.4824" y2="885.878" stroke="#E8E8EA" stroke-opacity="0.5"/>
<line x1="910.254" y1="-171.496" x2="441.768" y2="885.878" stroke="#E8E8EA" stroke-opacity="0.5"/>
<line x1="915.407" y1="-171.366" x2="-132.928" y2="1008.93" stroke="#E8E8EA" stroke-opacity="0.5"/>
<line x1="1443.51" y1="-171.496" x2="868.704" y2="1126.68" stroke="#E8E8EA" stroke-opacity="0.5"/>
<line x1="-107.654" y1="-138.968" x2="2108.49" y2="481.429" stroke="#E8E8EA" stroke-opacity="0.5"/>
<line x1="-100.358" y1="-112.631" x2="2296.91" y2="1225.86" stroke="#E8E8EA" stroke-opacity="0.5"/>
<line x1="362.906" y1="-171.901" x2="954.498" y2="1163.78" stroke="#E8E8EA" stroke-opacity="0.5"/>
<line x1="901.686" y1="-171.901" x2="1493.28" y2="1163.78" stroke="#E8E8EA" stroke-opacity="0.5"/>
<line x1="889.523" y1="-172.029" x2="2068.7" y2="1163.65" stroke="#E8E8EA" stroke-opacity="0.5"/>
<line x1="1429.41" y1="-171.901" x2="2021" y2="1163.78" stroke="#E8E8EA" stroke-opacity="0.5"/>
<line x1="636.781" y1="-225.583" x2="636.781" y2="1108.4" stroke="#E8E8EA" stroke-opacity="0.5"/>
<line x1="369.121" y1="-225.583" x2="369.121" y2="1108.4" stroke="#E8E8EA" stroke-opacity="0.5"/>
<line x1="1435.62" y1="-225.583" x2="1435.62" y2="1108.4" stroke="#E8E8EA" stroke-opacity="0.5"/>
<line x1="688.529" y1="-225.583" x2="688.529" y2="1108.4" stroke="#E8E8EA" stroke-opacity="0.5"/>
<line x1="901.729" y1="-225.583" x2="901.729" y2="1108.4" stroke="#E8E8EA" stroke-opacity="0.5"/>
<line x1="1118.76" y1="-225.583" x2="1118.76" y2="1108.4" stroke="#E8E8EA" stroke-opacity="0.5"/>
<line x1="1176.71" y1="-225.583" x2="1176.71" y2="1108.4" stroke="#E8E8EA" stroke-opacity="0.5"/>
<line x1="1707.91" y1="-225.583" x2="1707.91" y2="1108.4" stroke="#E8E8EA" stroke-opacity="0.5"/>
<line x1="-55.4941" y1="80.707" x2="2026.41" y2="80.7332" stroke="#E8E8EA" stroke-opacity="0.5"/>
<line x1="-55.4941" y1="245.288" x2="2026.41" y2="245.314" stroke="#E8E8EA" stroke-opacity="0.5"/>
<line x1="-71.9053" y1="417.966" x2="2007.52" y2="-159.451" stroke="#E8E8EA" stroke-opacity="0.5"/>
<line x1="-80.2904" y1="52.5888" x2="477.715" y2="1258.06" stroke="#E8E8EA" stroke-opacity="0.5"/>
<line x1="-187.336" y1="437.423" x2="2195.26" y2="1123.41" stroke="#E8E8EA" stroke-opacity="0.5"/>
<line x1="-55.4941" y1="446.812" x2="2026.41" y2="446.838" stroke="#E8E8EA" stroke-opacity="0.5"/>
<line x1="-55.4941" y1="648.335" x2="2026.41" y2="648.361" stroke="#E8E8EA" stroke-opacity="0.5"/>
<line x1="-55.4941" y1="805.603" x2="2026.41" y2="805.629" stroke="#E8E8EA" stroke-opacity="0.5"/>
</g>
<defs>
<clipPath id="clip0_1_5317">
<rect width="1920" height="886" fill="white" transform="translate(0.5)"/>
</clipPath>
</defs>
</svg>
