<svg width="961" height="854" viewBox="0 0 961 854" fill="none" xmlns="http://www.w3.org/2000/svg">
<g opacity="0.2">
<line y1="-0.5" x2="1202.72" y2="-0.5" transform="matrix(-0.562158 0.82703 0.82703 0.562158 286.631 -141.572)" stroke="url(#paint0_linear_1_5652)"/>
<line y1="-0.5" x2="1202.72" y2="-0.5" transform="matrix(-0.562158 0.82703 0.82703 0.562158 354.066 -141.572)" stroke="url(#paint1_linear_1_5652)"/>
<line y1="-0.5" x2="1202.72" y2="-0.5" transform="matrix(-0.562158 0.82703 0.82703 0.562158 421.504 -141.572)" stroke="url(#paint2_linear_1_5652)"/>
<line y1="-0.5" x2="1202.72" y2="-0.5" transform="matrix(-0.562158 0.82703 0.82703 0.562158 488.941 -141.572)" stroke="url(#paint3_linear_1_5652)"/>
<line y1="-0.5" x2="1202.72" y2="-0.5" transform="matrix(-0.562158 0.82703 0.82703 0.562158 556.379 -141.572)" stroke="url(#paint4_linear_1_5652)"/>
<line y1="-0.5" x2="1202.72" y2="-0.5" transform="matrix(-0.562158 0.82703 0.82703 0.562158 623.814 -141.572)" stroke="url(#paint5_linear_1_5652)"/>
<line y1="-0.5" x2="1202.72" y2="-0.5" transform="matrix(-0.562158 0.82703 0.82703 0.562158 691.252 -141.572)" stroke="url(#paint6_linear_1_5652)"/>
<line y1="-0.5" x2="1202.72" y2="-0.5" transform="matrix(-0.562158 0.82703 0.82703 0.562158 758.688 -141.572)" stroke="url(#paint7_linear_1_5652)"/>
<line y1="-0.5" x2="1202.72" y2="-0.5" transform="matrix(-0.562158 0.82703 0.82703 0.562158 826.125 -141.572)" stroke="url(#paint8_linear_1_5652)"/>
<line y1="-0.5" x2="1202.72" y2="-0.5" transform="matrix(-0.562158 0.82703 0.82703 0.562158 893.562 -141.572)" stroke="url(#paint9_linear_1_5652)"/>
<line y1="-0.5" x2="1202.72" y2="-0.5" transform="matrix(-0.562158 0.82703 0.82703 0.562158 961 -141.572)" stroke="url(#paint10_linear_1_5652)"/>
</g>
<defs>
<linearGradient id="paint0_linear_1_5652" x1="149.317" y1="-4.69931" x2="1163.31" y2="-11.5697" gradientUnits="userSpaceOnUse">
<stop stop-color="#2A3C6B"/>
<stop offset="1" stop-color="#2A3C6B" stop-opacity="0"/>
</linearGradient>
<linearGradient id="paint1_linear_1_5652" x1="149.317" y1="-4.69931" x2="1163.31" y2="-11.5697" gradientUnits="userSpaceOnUse">
<stop stop-color="#2A3C6B"/>
<stop offset="1" stop-color="#2A3C6B" stop-opacity="0"/>
</linearGradient>
<linearGradient id="paint2_linear_1_5652" x1="149.317" y1="-4.69931" x2="1163.31" y2="-11.5697" gradientUnits="userSpaceOnUse">
<stop stop-color="#2A3C6B"/>
<stop offset="1" stop-color="#2A3C6B" stop-opacity="0"/>
</linearGradient>
<linearGradient id="paint3_linear_1_5652" x1="149.317" y1="-4.69931" x2="1163.31" y2="-11.5697" gradientUnits="userSpaceOnUse">
<stop stop-color="#2A3C6B"/>
<stop offset="1" stop-color="#2A3C6B" stop-opacity="0"/>
</linearGradient>
<linearGradient id="paint4_linear_1_5652" x1="149.317" y1="-4.69931" x2="1163.31" y2="-11.5697" gradientUnits="userSpaceOnUse">
<stop stop-color="#2A3C6B"/>
<stop offset="1" stop-color="#2A3C6B" stop-opacity="0"/>
</linearGradient>
<linearGradient id="paint5_linear_1_5652" x1="149.317" y1="-4.69931" x2="1163.31" y2="-11.5697" gradientUnits="userSpaceOnUse">
<stop stop-color="#2A3C6B"/>
<stop offset="1" stop-color="#2A3C6B" stop-opacity="0"/>
</linearGradient>
<linearGradient id="paint6_linear_1_5652" x1="149.317" y1="-4.69931" x2="1163.31" y2="-11.5697" gradientUnits="userSpaceOnUse">
<stop stop-color="#2A3C6B"/>
<stop offset="1" stop-color="#2A3C6B" stop-opacity="0"/>
</linearGradient>
<linearGradient id="paint7_linear_1_5652" x1="149.317" y1="-4.69931" x2="1163.31" y2="-11.5697" gradientUnits="userSpaceOnUse">
<stop stop-color="#2A3C6B"/>
<stop offset="1" stop-color="#2A3C6B" stop-opacity="0"/>
</linearGradient>
<linearGradient id="paint8_linear_1_5652" x1="149.317" y1="-4.69931" x2="1163.31" y2="-11.5697" gradientUnits="userSpaceOnUse">
<stop stop-color="#2A3C6B"/>
<stop offset="1" stop-color="#2A3C6B" stop-opacity="0"/>
</linearGradient>
<linearGradient id="paint9_linear_1_5652" x1="149.317" y1="-4.69931" x2="1163.31" y2="-11.5697" gradientUnits="userSpaceOnUse">
<stop stop-color="#2A3C6B"/>
<stop offset="1" stop-color="#2A3C6B" stop-opacity="0"/>
</linearGradient>
<linearGradient id="paint10_linear_1_5652" x1="149.317" y1="-4.69931" x2="1163.31" y2="-11.5697" gradientUnits="userSpaceOnUse">
<stop stop-color="#2A3C6B"/>
<stop offset="1" stop-color="#2A3C6B" stop-opacity="0"/>
</linearGradient>
</defs>
</svg>
