<svg width="133" height="120" viewBox="0 0 133 120" fill="none" xmlns="http://www.w3.org/2000/svg">
<path d="M123.207 0L125.773 7.29909L132.707 10L125.773 12.7009L123.207 20L120.641 12.7009L113.707 10L120.641 7.29909L123.207 0Z" fill="white"/>
<path d="M118.723 102.206L120.883 108.41L126.723 110.706L120.883 113.002L118.723 119.206L116.562 113.002L110.723 110.706L116.562 108.41L118.723 102.206Z" fill="white"/>
<path d="M76.4197 65.5967L78.4544 71.4388L83.9528 73.6005L78.4544 75.7623L76.4197 81.6044L74.3851 75.7623L68.8867 73.6005L74.3851 71.4388L76.4197 65.5967Z" fill="white"/>
<path d="M6.83577 89L8.51429 93.8197L13.0504 95.6031L8.51429 97.3865L6.83577 102.206L5.15724 97.3865L0.621094 95.6031L5.15724 93.8197L6.83577 89Z" fill="white"/>
<path d="M126.723 51L128.208 55.0145L132.223 56.5L128.208 57.9855L126.723 62L125.237 57.9855L121.223 56.5L125.237 55.0145L126.723 51Z" fill="white"/>
</svg>
