<svg width="139" height="101" viewBox="0 0 139 101" fill="none" xmlns="http://www.w3.org/2000/svg">
<path d="M131.5 0L133.526 5.83927L139 8L133.526 10.1607L131.5 16L129.474 10.1607L124 8L129.474 5.83927L131.5 0Z" fill="white"/>
<path d="M128 80L129.621 84.7444L134 86.5L129.621 88.2556L128 93L126.379 88.2556L122 86.5L126.379 84.7444L128 80Z" fill="white"/>
<path d="M95 52L96.6205 56.3795L101 58L96.6205 59.6205L95 64L93.3795 59.6205L89 58L93.3795 56.3795L95 52Z" fill="white"/>
<path d="M68.1328 16L69.7534 20.3795L74.1328 22L69.7534 23.6205L68.1328 28L66.5123 23.6205L62.1328 22L66.5123 20.3795L68.1328 16Z" fill="white"/>
<path d="M37.3281 58L38.9487 62.3795L43.3281 64L38.9487 65.6205L37.3281 70L35.7076 65.6205L31.3281 64L35.7076 62.3795L37.3281 58Z" fill="white"/>
<path d="M12.0625 16L13.683 20.3795L18.0625 22L13.683 23.6205L12.0625 28L10.442 23.6205L6.0625 22L10.442 20.3795L12.0625 16Z" fill="white"/>
<path d="M6.0625 88.6826L7.68304 93.0621L12.0625 94.6826L7.68304 96.3032L6.0625 100.683L4.44196 96.3032L0.0625 94.6826L4.44196 93.0621L6.0625 88.6826Z" fill="white"/>
</svg>
