<svg width="68" height="61" viewBox="0 0 68 61" fill="none" xmlns="http://www.w3.org/2000/svg">
<circle opacity="0.2" cx="45.6631" cy="30.5049" r="22.2998" fill="#2A3C6B"/>
<path d="M30.6129 51.6049L30.2566 51.4519L29.9006 51.6058L24.0695 54.1269C23.0991 54.5464 21.9682 54.1793 21.4294 53.2698L18.6252 48.5368C18.2192 47.8515 17.5492 47.3634 16.7726 47.187L11.409 45.9687C10.382 45.7354 9.68663 44.7775 9.78301 43.7287L10.2896 38.2159C10.3623 37.4251 10.1075 36.6392 9.58471 36.0414L5.94845 31.8835C5.25706 31.093 5.25601 29.9132 5.946 29.1214L9.58829 24.9418C10.1088 24.3444 10.3623 23.5601 10.2898 22.7711L9.78365 17.2632C9.68708 16.2123 10.3854 15.253 11.4151 15.022L16.7667 13.8212C17.5464 13.6463 18.2194 13.1573 18.6268 12.4698L21.4327 7.73378C21.9706 6.826 23.0985 6.45826 24.068 6.87459L29.1136 9.04119C29.8441 9.35492 30.6715 9.35491 31.4021 9.04119L36.4442 6.87603C37.4148 6.45926 38.5438 6.82823 39.081 7.73769L41.89 12.4937C42.2958 13.1807 42.9666 13.6701 43.7446 13.8469L49.1059 15.0647C50.1332 15.298 50.8286 16.2562 50.7319 17.3052L50.2263 22.7929C50.1534 23.5838 50.4082 24.3701 50.9311 24.968L54.5641 29.1222C55.2564 29.9138 55.2564 31.0954 54.5641 31.8871L50.9311 36.0412C50.4082 36.6391 50.1534 37.4254 50.2263 38.2164L50.7319 43.7041C50.8286 44.753 50.1332 45.7112 49.106 45.9446L43.7431 47.1627C42.9664 47.3392 42.2964 47.8272 41.8905 48.5125L39.0829 53.2512C38.545 54.159 37.4171 54.5267 36.4476 54.1104L30.6129 51.6049ZM24.9826 42.6016L25.6199 43.2405L26.2571 42.6016L44.0563 24.7538L44.6909 24.1174L44.0554 23.4819L40.4616 19.888L39.8241 19.2506L39.1877 19.8891L25.6201 33.5031L20.624 28.4855L19.9876 27.8463L19.3498 28.4841L15.756 32.0779L15.1205 32.7135L15.7552 33.3499L24.9826 42.6016Z" stroke="#2A3C6B" stroke-width="1.8"/>
</svg>
