<svg width="68" height="61" viewBox="0 0 68 61" fill="none" xmlns="http://www.w3.org/2000/svg">
<circle opacity="0.2" cx="45.6631" cy="30.5049" r="22.2998" fill="#2A3C6B"/>
<path fill-rule="evenodd" clip-rule="evenodd" d="M22.9168 3.06395C22.8282 3.08543 22.3932 3.1617 21.95 3.23346C20.7984 3.41984 19.3678 3.91086 18.2278 4.51103C14.9824 6.21947 12.6657 9.15896 11.7214 12.766C11.4172 13.9281 11.3913 14.1673 11.3869 15.8519C11.3794 18.7098 11.562 19.3172 13.94 24.3422C14.86 26.2863 15.6393 27.9607 15.6718 28.063C15.7148 28.1987 15.6204 28.3054 15.3223 28.4578C14.5538 28.8509 13.9205 29.5171 13.4929 30.3821L13.0877 31.202V42.9759V54.7498L13.4929 55.5697C13.9715 56.538 14.5892 57.1376 15.6122 57.6272L16.3104 57.9613H28.5028H40.6952L41.4127 57.6213C42.4114 57.1482 43.0334 56.5392 43.5166 55.5614L43.9178 54.7498V42.9815V31.2132L43.5778 30.4956C43.1047 29.497 42.4958 28.875 41.5182 28.3918L40.7065 27.9906L31.9566 27.9368L23.2067 27.8831L20.8662 22.9417C18.2716 17.4637 18.1169 17.0304 18.2224 15.536C18.3664 13.4943 19.5088 11.6566 21.2183 10.7168C22.3369 10.1017 22.9379 9.94679 24.2059 9.94679C25.728 9.94679 26.7371 10.287 27.9405 11.2057C28.9111 11.9466 29.3094 12.6206 31.3861 17.0359C32.4692 19.3388 33.4532 21.3075 33.5728 21.411C33.6924 21.5144 33.8977 21.5989 34.029 21.5989C34.3906 21.5989 39.2713 19.3807 39.4867 19.1185C39.59 18.9926 39.6747 18.7962 39.6747 18.682C39.6747 18.3146 35.5129 9.66083 34.8858 8.72412C32.5605 5.25117 28.8008 3.18705 24.5819 3.06749C23.7547 3.04408 23.0055 3.04247 22.9168 3.06395ZM22.3082 4.89281C16.3463 5.97455 12.3213 11.5081 13.1507 17.4823C13.344 18.8752 13.8098 20.0781 15.7015 24.0697L17.5087 27.8831L19.4196 27.9126C20.934 27.9358 21.3186 27.9135 21.2737 27.8051C21.2425 27.7298 20.2713 25.6717 19.1154 23.2315C17.9595 20.7914 16.9149 18.4743 16.7938 18.0825C16.6728 17.6908 16.5445 16.956 16.5085 16.4497C16.1502 11.402 20.7651 7.32548 25.6867 8.34212C27.3938 8.69468 28.6972 9.43063 29.905 10.724C30.7137 11.59 30.9918 12.1121 33.4506 17.3797C34.0084 18.5745 34.4995 19.5534 34.5419 19.555C34.6145 19.5577 37.5456 18.2825 37.6098 18.2202C37.6449 18.1862 35.0073 12.5768 34.2231 11.0179C32.8113 8.21118 30.6401 6.31099 27.6971 5.30606C26.1159 4.76616 23.9299 4.59847 22.3082 4.89281ZM39.9384 10.1537L39.6747 10.4173V12.8978V15.3783L39.9384 15.6419C40.1046 15.8082 40.3248 15.9056 40.534 15.9056C40.7433 15.9056 40.9635 15.8082 41.1297 15.6419L41.3934 15.3783V12.8978V10.4173L41.1297 10.1537C40.9635 9.9874 40.7433 9.88997 40.534 9.88997C40.3248 9.88997 40.1046 9.9874 39.9384 10.1537ZM44.2164 13.5724C42.4716 15.3172 42.2528 15.5752 42.2528 15.8868C42.2528 16.3573 42.6604 16.765 43.1309 16.765C43.4426 16.765 43.7005 16.5461 45.4454 14.8013C47.1902 13.0564 47.409 12.7985 47.409 12.4869C47.409 12.0164 47.0014 11.6087 46.5309 11.6087C46.2192 11.6087 45.9613 11.8275 44.2164 13.5724ZM44.2352 17.8881C44.069 18.0542 43.9715 18.2745 43.9715 18.4837C43.9715 18.693 44.069 18.9132 44.2352 19.0794C44.4967 19.3409 44.5155 19.3431 46.5497 19.3431C48.5838 19.3431 48.6026 19.3409 48.8641 19.0794C49.0303 18.9132 49.1278 18.693 49.1278 18.4837C49.1278 18.2745 49.0303 18.0542 48.8641 17.8881C48.6026 17.6265 48.5838 17.6243 46.5497 17.6243C44.5155 17.6243 44.4967 17.6265 44.2352 17.8881ZM16.4715 29.796C15.9443 29.9622 15.0451 30.8933 14.8834 31.4405C14.6949 32.0787 14.6949 53.8731 14.8834 54.5113C15.0577 55.1014 15.9476 55.9912 16.5377 56.1656C17.1762 56.3542 39.8293 56.3542 40.4679 56.1656C41.0579 55.9912 41.9478 55.1014 42.1222 54.5113C42.3107 53.8731 42.3107 32.0787 42.1222 31.4405C41.9478 30.8504 41.0579 29.9606 40.4679 29.7862C39.8664 29.6085 17.0368 29.6179 16.4715 29.796ZM27.5662 34.9097C26.841 35.0952 26.0333 35.586 25.509 36.1598C24.7761 36.9617 24.4922 37.7187 24.4835 38.8939C24.4776 39.6993 24.516 39.89 24.8095 40.5114C24.9924 40.899 25.3473 41.4307 25.598 41.6931L26.0539 42.1702L25.387 45.1734C24.6381 48.5458 24.6067 49.0276 25.0943 49.6669C25.6381 50.3798 25.9103 50.4417 28.5028 50.4417C31.0933 50.4417 31.3677 50.3795 31.9088 49.6701C32.3914 49.0374 32.3629 48.601 31.6174 45.2153L30.9469 42.1702L31.4052 41.6931C31.6572 41.4307 32.0131 40.899 32.196 40.5114C32.4895 39.89 32.528 39.6993 32.5221 38.8939C32.5126 37.6168 32.2205 36.8994 31.3589 36.0377C30.8817 35.5607 30.5307 35.3174 30.0604 35.1381C29.3658 34.8732 28.1456 34.7615 27.5662 34.9097ZM27.5897 36.731C26.7832 37.0983 26.1421 38.0494 26.1401 38.8814C26.1383 39.6318 26.5733 40.3117 27.5687 41.1147C27.7578 41.2673 27.8591 41.4536 27.8608 41.6518C27.8622 41.8188 27.5411 43.4133 27.1473 45.1952C26.7536 46.9771 26.4609 48.512 26.4969 48.6059C26.5535 48.7533 26.8285 48.7767 28.5028 48.7767C30.1771 48.7767 30.4521 48.7533 30.5087 48.6059C30.5447 48.512 30.2519 46.9771 29.8582 45.1952C29.4644 43.4133 29.1433 41.8188 29.1447 41.6518C29.1465 41.4536 29.2477 41.2673 29.4368 41.1147C30.5681 40.2022 30.9678 39.4657 30.8231 38.5609C30.5785 37.0314 28.9516 36.1107 27.5897 36.731Z" fill="#2A3C6B"/>
</svg>
