<svg width="201" height="99" viewBox="0 0 201 99" fill="none" xmlns="http://www.w3.org/2000/svg">
<path d="M193.062 0.494141L195.088 6.33341L200.562 8.49414L195.088 10.6549L193.062 16.4941L191.037 10.6549L185.562 8.49414L191.037 6.33341L193.062 0.494141Z" fill="white"/>
<path d="M189.562 80.4941L191.183 85.2386L195.562 86.9941L191.183 88.7497L189.562 93.4941L187.942 88.7497L183.562 86.9941L187.942 85.2386L189.562 80.4941Z" fill="white"/>
<path d="M156.562 52.4941L158.183 56.8736L162.562 58.4941L158.183 60.1147L156.562 64.4941L154.942 60.1147L150.562 58.4941L154.942 56.8736L156.562 52.4941Z" fill="white"/>
<path d="M59.2148 86.9941L60.8354 91.3736L65.2148 92.9941L60.8354 94.6147L59.2148 98.9941L57.5943 94.6147L53.2148 92.9941L57.5943 91.3736L59.2148 86.9941Z" fill="white"/>
<path d="M102.562 70.4941L103.913 74.1437L107.562 75.4941L103.913 76.8446L102.562 80.4941L101.212 76.8446L97.5625 75.4941L101.212 74.1437L102.562 70.4941Z" fill="white"/>
<path d="M80.9297 24.4941L82.2801 28.1437L85.9297 29.4941L82.2801 30.8446L80.9297 34.4941L79.5792 30.8446L75.9297 29.4941L79.5792 28.1437L80.9297 24.4941Z" fill="white"/>
<path d="M5.21484 34.4941L6.5653 38.1437L10.2148 39.4941L6.5653 40.8446L5.21484 44.4941L3.86439 40.8446L0.214844 39.4941L3.86439 38.1437L5.21484 34.4941Z" fill="white"/>
<path d="M196.062 40.4941L197.278 43.7787L200.562 44.9941L197.278 46.2095L196.062 49.4941L194.847 46.2095L191.562 44.9941L194.847 43.7787L196.062 40.4941Z" fill="white"/>
</svg>
