<svg width="68" height="61" viewBox="0 0 68 61" fill="none" xmlns="http://www.w3.org/2000/svg">
<circle opacity="0.2" cx="45.6631" cy="30.5049" r="22.2998" fill="#2A3C6B"/>
<path fill-rule="evenodd" clip-rule="evenodd" d="M16.5039 4.02938C16.2836 4.20258 16.1963 4.37895 16.1991 4.64461C16.2065 5.33742 18.013 12.5525 18.2425 12.8061C18.7224 13.3363 19.7108 12.954 19.7108 12.2384C19.7108 12.053 19.2942 10.1698 18.785 8.0536C18.023 4.88672 17.8134 4.16895 17.6001 3.99621C17.2585 3.71965 16.8833 3.73102 16.5039 4.02938ZM29.2156 3.91324C28.2969 4.09359 27.2363 4.67695 26.5514 5.37856C25.9653 5.97879 25.6606 6.53824 23.178 11.5725C20.316 17.3756 20.0226 17.8587 19.088 18.3028C18.4643 18.5993 18.2469 18.6371 11.9178 19.5506C9.01742 19.9693 6.3807 20.3884 6.05843 20.4819C4.78496 20.8516 3.65902 21.8531 2.98308 23.2175C2.62133 23.9476 2.5509 24.2217 2.50625 25.0716C2.44074 26.3209 2.69058 27.3183 3.30312 28.2527C3.57617 28.6691 5.34699 30.4773 7.97679 33.0247C10.3055 35.2806 12.344 37.3249 12.5067 37.5676C12.6694 37.8103 12.8817 38.318 12.9785 38.6955C13.1732 39.4559 13.303 38.5358 11.5636 48.7279C10.9482 52.3337 10.9525 52.8356 11.6111 54.243C12.4163 55.9638 14.4037 57.2239 16.3123 57.2239C17.4247 57.2239 18.2084 56.8808 23.7537 53.9664L29.2616 51.0716H30.2577H31.2537L36.765 53.9667C40.1736 55.7573 42.5415 56.931 42.9713 57.0429C43.845 57.2705 44.5541 57.2723 45.4108 57.0491C47.5529 56.4912 49.0181 54.8837 49.3637 52.7122C49.4853 51.9481 49.4579 51.6793 48.963 48.7864C47.2292 38.6525 47.3425 39.4542 47.5368 38.6955C47.6336 38.318 47.8462 37.8103 48.0093 37.5676C48.1725 37.3249 50.2119 35.2806 52.5413 33.0247C55.198 30.4519 56.9397 28.6733 57.2142 28.2527C58.1824 26.769 58.3038 24.7766 57.5223 23.1954C56.8647 21.8648 55.7339 20.8642 54.4522 20.4784C54.1609 20.3907 51.3533 19.9455 48.2131 19.4892C45.073 19.0329 42.2355 18.5836 41.9076 18.4909C41.5347 18.3854 41.0984 18.1348 40.7426 17.8219C40.2167 17.3592 39.9645 16.8973 37.3884 11.6773C34.8567 6.54727 34.5444 5.97305 33.9612 5.37586C32.7432 4.12817 30.9443 3.57375 29.2156 3.91324ZM28.782 5.95254C28.4608 6.11262 28.0282 6.41871 27.8207 6.63281C27.5798 6.88125 26.4448 9.03164 24.6808 12.5816C23.1614 15.6394 21.7284 18.3728 21.4965 18.6558C20.9746 19.2927 19.9398 19.9734 19.1085 20.2267C18.763 20.3319 15.8789 20.793 12.6993 21.2515C9.5198 21.7098 6.7032 22.1607 6.44 22.2536C5.7057 22.5127 5.00211 23.1586 4.63086 23.9147C4.19011 24.8121 4.16316 26.0661 4.56699 26.8856C4.76129 27.2801 6.06125 28.6307 9.37402 31.8803C12.573 35.018 14.0082 36.5058 14.2309 36.9148C14.6053 37.6028 14.9061 38.6873 14.9061 39.3493C14.9061 39.6103 14.4578 42.4426 13.91 45.6432C13.3621 48.844 12.9151 51.7703 12.9165 52.1461C12.9222 53.6674 14.0826 55.0073 15.6935 55.3528C16.7234 55.5737 17.2606 55.3531 22.8316 52.4197C25.6591 50.9309 28.2864 49.6057 28.6701 49.4748C29.6007 49.1572 30.9092 49.1562 31.8452 49.4723C32.4792 49.6865 33.6212 50.2713 40.6059 53.9592C43.1519 55.3035 43.8949 55.5468 44.8496 55.3485C45.9963 55.1105 47.1949 54.0543 47.4788 53.0316C47.6974 52.2448 47.6128 51.5292 46.6053 45.6432C46.0575 42.4426 45.6092 39.6103 45.6092 39.3493C45.6092 38.688 45.9099 37.603 46.2833 36.917C46.5044 36.5108 47.9477 35.0152 51.1333 31.8909C56.2169 26.9056 56.2035 26.9224 56.2105 25.4661C56.214 24.7347 56.1594 24.4747 55.8853 23.9164C55.496 23.1236 54.8089 22.4961 54.0595 22.2491C53.7624 22.1511 50.8182 21.6782 47.5167 21.1979C41.9077 20.3822 41.4621 20.3 40.723 19.9474C39.1542 19.1986 39.0397 19.0267 35.8787 12.6725C34.1014 9.09996 32.9258 6.87129 32.6903 6.62848C32.0489 5.9666 31.2812 5.66145 30.2577 5.66145C29.5432 5.66145 29.2502 5.71922 28.782 5.95254ZM6.62269 6.36539C6.15793 6.55266 5.9614 7.26891 6.26726 7.66078C6.50738 7.9684 15.0043 14.6835 15.2918 14.7927C15.6818 14.9411 16.2853 14.6577 16.3796 14.2821C16.5616 13.5567 16.6985 13.6804 8.95238 7.56984C8.03047 6.84246 7.18672 6.25078 7.07738 6.25477C6.96816 6.25887 6.76355 6.30867 6.62269 6.36539ZM3.91261 13.8691C3.62011 14.1416 3.5682 14.7543 3.80972 15.0846C3.97156 15.3059 11.3967 17.4971 11.9853 17.4973C12.3657 17.4974 12.7967 17.049 12.7967 16.6532C12.7967 15.9822 12.6027 15.8951 8.51328 14.7301C6.38972 14.1253 4.54343 13.6303 4.41066 13.6303C4.27777 13.6302 4.05359 13.7378 3.91261 13.8691ZM30.2916 18.1976C28.9632 18.8695 28.6439 19.4695 28.1985 22.1296C28.0263 23.1591 27.7835 24.2756 27.6589 24.6109C27.2753 25.6438 26.1334 26.7238 25.011 27.115C24.6692 27.2341 24.6139 27.2129 24.2089 26.8081C23.4876 26.0866 22.6409 25.7641 21.4686 25.7641C20.6395 25.7641 20.3615 25.8157 19.8106 26.072C18.6424 26.6152 17.9561 27.4947 17.7172 28.7548C17.5487 29.6436 17.5721 32.374 17.7513 32.7282C17.9534 33.1275 18.425 33.3717 18.8085 33.2754C19.3692 33.1348 19.4764 32.7125 19.4764 30.6456C19.4764 28.9061 19.494 28.7562 19.7401 28.3941C20.5077 27.2645 22.4295 27.2645 23.1971 28.3941L23.4608 28.7821L23.4603 34.419C23.46 39.8371 23.4508 40.0709 23.227 40.4379C22.795 41.1465 21.9666 41.4873 21.021 41.3455C20.5953 41.2818 20.3697 41.1559 19.9771 40.7633L19.4764 40.2626V38.8474C19.4764 37.5325 19.4569 37.4098 19.2019 37.1133C18.8544 36.7092 18.2862 36.682 17.9171 37.0519C17.678 37.2915 17.6601 37.4183 17.6625 38.8611C17.6648 40.3181 17.685 40.4535 17.9913 41.0798C18.6304 42.386 19.9257 43.1614 21.4686 43.1614C22.4122 43.1614 23.3217 42.8651 23.9255 42.3609L24.3268 42.026L24.8287 42.4091C25.1289 42.6383 25.5815 42.8443 25.9552 42.9219C26.3817 43.0104 28.754 43.0411 33.4285 43.0186L40.2772 42.9857L40.9052 42.6379C42.1497 41.9486 42.8194 40.7473 42.8152 39.2122C42.8136 38.6379 42.7407 38.2052 42.5868 37.8575C42.3637 37.3532 42.3637 37.3397 42.5869 36.7714C42.9212 35.9204 42.8974 34.7159 42.5282 33.8019C42.3682 33.4054 42.2798 33.0545 42.3322 33.0222C42.5465 32.8896 42.8243 31.7218 42.8173 30.9823C42.803 29.4655 41.984 28.1249 40.7131 27.5382C40.2109 27.3064 39.9137 27.2775 37.4833 27.2242C34.8447 27.1662 34.8035 27.1614 34.5829 26.8887C34.2972 26.5355 34.2953 26.5791 34.7108 24.0204C34.9041 22.8295 35.0623 21.5697 35.0623 21.2205C35.0623 20.3524 34.7828 19.6044 34.2189 18.9639C33.5589 18.214 32.9689 17.938 31.8983 17.8784C31.0946 17.8336 30.9571 17.8609 30.2916 18.1976ZM31.0863 19.8121C30.4178 20.1529 30.2858 20.4584 29.9705 22.3935C29.8101 23.3784 29.6192 24.4054 29.5464 24.6757C29.0434 26.5441 27.416 28.2129 25.4237 28.9034C25.2323 28.9697 25.2186 29.3406 25.2188 34.4566C25.2189 39.4444 25.2375 39.975 25.4239 40.3406C25.859 41.194 25.443 41.1476 33.0312 41.1899C39.7957 41.2276 39.8503 41.226 40.1797 40.9825C40.8917 40.4559 41.2318 39.3481 40.9271 38.5468L40.8153 38.2528L38.3384 38.217C35.8969 38.1814 35.8583 38.177 35.6377 37.9043C35.3519 37.551 35.3519 37.0532 35.6377 36.6998C35.8583 36.4272 35.8969 36.4227 38.3384 36.3872L40.8153 36.3513L40.9271 36.0573C41.094 35.6186 41.0622 34.8747 40.8601 34.4837L40.6814 34.138H38.5126C36.0733 34.138 35.5982 34.0364 35.4598 33.4847C35.3512 33.052 35.534 32.5911 35.8846 32.4137C36.0878 32.3108 36.8573 32.2659 38.4375 32.2648L40.6993 32.263L40.8691 31.8566C41.2166 31.025 40.9452 29.8798 40.2761 29.3534C39.9687 29.1116 39.8349 29.0988 37.5953 29.0961C36.2989 29.0945 35.0008 29.0392 34.7108 28.9731C33.9416 28.798 33.3567 28.3614 32.9564 27.6633C32.5014 26.87 32.5011 26.4443 32.953 23.6497C33.1463 22.4539 33.3045 21.3312 33.3045 21.1546C33.3045 20.4081 32.5164 19.6065 31.783 19.607C31.6208 19.607 31.3073 19.6993 31.0863 19.8121Z" fill="#2A3C6B"/>
</svg>
