<svg width="68" height="61" viewBox="0 0 68 61" fill="none" xmlns="http://www.w3.org/2000/svg">
<circle opacity="0.2" cx="45.6631" cy="30.5049" r="22.2998" fill="#2A3C6B"/>
<path d="M5.79453 15.2736V15.2728C5.79453 12.9714 7.65694 11.0953 9.94666 11.0953H50.5668C52.8624 11.0953 54.7443 12.9773 54.7443 15.2728V45.7379C54.7443 48.0335 52.8624 49.9154 50.5668 49.9154H9.94666C7.6512 49.9154 5.76934 48.0337 5.76914 45.7383C5.76914 45.7382 5.76914 45.738 5.76914 45.7379L5.79453 15.2736ZM11.4718 22.0101L11.9593 21.2536L11.4718 22.0101L29.2287 33.4524C29.8543 33.8555 30.6576 33.8563 31.2839 33.4544L49.0767 22.0385C49.6213 21.6891 49.9506 21.0865 49.9506 20.4394V17.7381C49.9506 16.2357 48.2892 15.3276 47.0246 16.139L30.3119 26.8619C30.2789 26.8831 30.2366 26.883 30.2037 26.8618L13.5302 16.1176C12.2658 15.3029 10.601 16.2106 10.601 17.7148V20.413C10.601 21.0588 10.929 21.6603 11.4718 22.0101Z" stroke="#2A3C6B" stroke-width="1.8"/>
</svg>
