<svg width="25" height="24" viewBox="0 0 25 24" fill="none" xmlns="http://www.w3.org/2000/svg">
<g clip-path="url(#clip0_1_10434)">
<path d="M0.304688 5.5C0.304688 4.39543 1.20012 3.5 2.30469 3.5H22.3047C23.4093 3.5 24.3047 4.39543 24.3047 5.5V18.5C24.3047 19.6046 23.4093 20.5 22.3047 20.5H2.30469C1.20012 20.5 0.304688 19.6046 0.304688 18.5V5.5Z" fill="#00ABC2"/>
<path d="M12.7709 12.655C13.6626 12.655 14.3855 11.9321 14.3855 11.0404C14.3855 10.1487 13.6626 9.42578 12.7709 9.42578C11.8791 9.42578 11.1562 10.1487 11.1562 11.0404C11.1562 11.9321 11.8791 12.655 12.7709 12.655Z" fill="#FFEC2D"/>
<path d="M12.7687 9.20593C12.8647 9.20473 12.9007 9.14473 12.9007 9.07273C12.9007 8.97673 12.7687 8.51953 12.7687 8.51953C12.7687 8.51953 12.6367 8.97673 12.6367 9.07273C12.6367 9.14473 12.6727 9.20593 12.7687 9.20593Z" fill="#FFEC2D"/>
<path d="M14.6027 11.0412C14.6039 11.1372 14.6639 11.1732 14.7359 11.1732C14.8319 11.1732 15.2891 11.0412 15.2891 11.0412C15.2891 11.0412 14.8319 10.9092 14.7359 10.9092C14.6639 10.9092 14.6027 10.9452 14.6027 11.0412Z" fill="#FFEC2D"/>
<path d="M12.7664 12.8751C12.6704 12.8763 12.6344 12.9363 12.6344 13.0083C12.6344 13.1043 12.7664 13.5615 12.7664 13.5615C12.7664 13.5615 12.8984 13.1043 12.8984 13.0083C12.8984 12.9363 12.8624 12.8751 12.7664 12.8751Z" fill="#FFEC2D"/>
<path d="M10.9325 11.0409C10.9313 10.9449 10.8713 10.9089 10.7993 10.9089C10.7033 10.9089 10.2461 11.0409 10.2461 11.0409C10.2461 11.0409 10.7033 11.1729 10.7993 11.1729C10.8713 11.1729 10.9325 11.1369 10.9325 11.0409Z" fill="#FFEC2D"/>
<path d="M13.4687 9.34482C13.5578 9.38045 13.614 9.33879 13.6416 9.27227C13.6783 9.18358 13.7313 8.71067 13.7313 8.71067C13.7313 8.71067 13.4344 9.08255 13.3977 9.17125C13.3701 9.23777 13.38 9.30808 13.4687 9.34482Z" fill="#FFEC2D"/>
<path d="M14.4638 11.7421C14.4281 11.8312 14.4698 11.8875 14.5363 11.915C14.625 11.9518 15.0979 12.0048 15.0979 12.0048C15.0979 12.0048 14.726 11.7078 14.6373 11.6711C14.5708 11.6436 14.5005 11.6534 14.4638 11.7421Z" fill="#FFEC2D"/>
<path d="M12.0665 12.7353C11.9774 12.6996 11.9211 12.7413 11.8936 12.8078C11.8568 12.8965 11.8038 13.3694 11.8038 13.3694C11.8038 13.3694 12.1007 12.9975 12.1375 12.9088C12.165 12.8423 12.1552 12.772 12.0665 12.7353Z" fill="#FFEC2D"/>
<path d="M11.0714 10.338C11.107 10.2488 11.0654 10.1926 10.9988 10.1651C10.9101 10.1283 10.4372 10.0753 10.4372 10.0753C10.4372 10.0753 10.8091 10.3722 10.8978 10.409C10.9643 10.4365 11.0346 10.4267 11.0714 10.338Z" fill="#FFEC2D"/>
<path d="M14.065 9.74276C14.1337 9.80979 14.2016 9.79282 14.2525 9.74191C14.3204 9.67403 14.5504 9.2574 14.5504 9.2574C14.5504 9.2574 14.1337 9.48735 14.0659 9.55523C14.0149 9.60615 13.9971 9.67488 14.065 9.74276Z" fill="#FFEC2D"/>
<path d="M14.0658 12.3375C13.9988 12.4062 14.0158 12.4741 14.0667 12.525C14.1346 12.5929 14.5512 12.8228 14.5512 12.8228C14.5512 12.8228 14.3212 12.4062 14.2534 12.3383C14.2024 12.2874 14.1337 12.2696 14.0658 12.3375Z" fill="#FFEC2D"/>
<path d="M11.4741 12.3383C11.4053 12.2713 11.3374 12.2882 11.2865 12.3391C11.2186 12.407 10.9887 12.8237 10.9887 12.8237C10.9887 12.8237 11.4053 12.5937 11.4732 12.5258C11.5241 12.4749 11.5419 12.4062 11.4741 12.3383Z" fill="#FFEC2D"/>
<path d="M11.4732 9.74358C11.5403 9.67485 11.5233 9.60697 11.4724 9.55606C11.4045 9.48818 10.9879 9.25822 10.9879 9.25822C10.9879 9.25822 11.2178 9.67485 11.2857 9.74273C11.3366 9.79365 11.4053 9.81146 11.4732 9.74358Z" fill="#FFEC2D"/>
<path d="M14.4632 10.3387C14.5011 10.427 14.5703 10.4373 14.6368 10.4097C14.7255 10.373 15.0974 10.0761 15.0974 10.0761C15.0974 10.0761 14.6245 10.1291 14.5358 10.1658C14.4693 10.1934 14.4265 10.25 14.4632 10.3387Z" fill="#FFEC2D"/>
<path d="M13.4708 12.7357C13.3826 12.7735 13.3723 12.8428 13.3999 12.9093C13.4366 12.998 13.7335 13.3699 13.7335 13.3699C13.7335 13.3699 13.6805 12.8969 13.6438 12.8082C13.6162 12.7417 13.5595 12.699 13.4708 12.7357Z" fill="#FFEC2D"/>
<path d="M11.0719 11.7433C11.0341 11.6551 10.9649 11.6448 10.8983 11.6723C10.8097 11.7091 10.4378 12.006 10.4378 12.006C10.4378 12.006 10.9107 11.953 10.9994 11.9162C11.0659 11.8887 11.1087 11.832 11.0719 11.7433Z" fill="#FFEC2D"/>
<path d="M12.0643 9.34536C12.1525 9.30751 12.1628 9.2383 12.1353 9.17178C12.0986 9.08309 11.8016 8.7112 11.8016 8.7112C11.8016 8.7112 11.8547 9.18412 11.8914 9.27281C11.9189 9.33933 11.9756 9.38209 12.0643 9.34536Z" fill="#FFEC2D"/>
<path d="M13.1245 9.24096C13.2188 9.25851 13.2659 9.20668 13.2799 9.13607C13.2986 9.04191 13.2584 8.56774 13.2584 8.56774C13.2584 8.56774 13.0397 8.99041 13.021 9.08456C13.0069 9.15518 13.0303 9.22223 13.1245 9.24096Z" fill="#FFEC2D"/>
<path d="M14.5667 11.3979C14.5491 11.4923 14.6009 11.5393 14.6716 11.5533C14.7657 11.5721 15.2399 11.5318 15.2399 11.5318C15.2399 11.5318 14.8172 11.3131 14.7231 11.2944C14.6524 11.2804 14.5854 11.3037 14.5667 11.3979Z" fill="#FFEC2D"/>
<path d="M12.4068 12.8401C12.3124 12.8225 12.2654 12.8744 12.2513 12.945C12.2326 13.0391 12.2729 13.5133 12.2729 13.5133C12.2729 13.5133 12.4915 13.0906 12.5103 12.9965C12.5243 12.9259 12.5009 12.8588 12.4068 12.8401Z" fill="#FFEC2D"/>
<path d="M10.9646 10.6822C10.9821 10.5878 10.9303 10.5408 10.8597 10.5267C10.7655 10.508 10.2914 10.5483 10.2914 10.5483C10.2914 10.5483 10.714 10.7669 10.8082 10.7857C10.8788 10.7997 10.9459 10.7763 10.9646 10.6822Z" fill="#FFEC2D"/>
<path d="M13.789 9.51417C13.8694 9.56651 13.9327 9.53662 13.9727 9.47676C14.026 9.39694 14.1703 8.94345 14.1703 8.94345C14.1703 8.94345 13.8065 9.25027 13.7532 9.33009C13.7132 9.38995 13.7091 9.46084 13.789 9.51417Z" fill="#FFEC2D"/>
<path d="M14.2915 12.0595C14.2392 12.14 14.269 12.2032 14.3289 12.2432C14.4087 12.2966 14.8622 12.4408 14.8622 12.4408C14.8622 12.4408 14.5554 12.077 14.4756 12.0237C14.4157 11.9837 14.3448 11.9796 14.2915 12.0595Z" fill="#FFEC2D"/>
<path d="M11.7501 12.5659C11.6696 12.5136 11.6064 12.5435 11.5663 12.6033C11.513 12.6831 11.3688 13.1366 11.3688 13.1366C11.3688 13.1366 11.7325 12.8298 11.7859 12.75C11.8259 12.6901 11.8299 12.6192 11.7501 12.5659Z" fill="#FFEC2D"/>
<path d="M11.2437 10.0206C11.296 9.94013 11.2661 9.87686 11.2062 9.83686C11.1264 9.78352 10.6729 9.63927 10.6729 9.63927C10.6729 9.63927 10.9798 10.003 11.0596 10.0564C11.1194 10.0964 11.1903 10.1004 11.2437 10.0206Z" fill="#FFEC2D"/>
<path d="M14.2917 10.0204C14.346 10.0995 14.4159 10.0961 14.4758 10.0561C14.5556 10.0028 14.8624 9.63905 14.8624 9.63905C14.8624 9.63905 14.4089 9.7833 14.3291 9.83664C14.2692 9.87664 14.2383 9.94057 14.2917 10.0204Z" fill="#FFEC2D"/>
<path d="M13.7862 12.5651C13.7071 12.6194 13.7105 12.6893 13.7505 12.7492C13.8038 12.829 14.1676 13.1358 14.1676 13.1358C14.1676 13.1358 14.0233 12.6824 13.97 12.6025C13.93 12.5427 13.8661 12.5118 13.7862 12.5651Z" fill="#FFEC2D"/>
<path d="M11.2396 12.0587C11.1852 11.9796 11.1154 11.983 11.0555 12.023C10.9757 12.0763 10.6689 12.4401 10.6689 12.4401C10.6689 12.4401 11.1223 12.2958 11.2022 12.2425C11.262 12.2025 11.2929 12.1385 11.2396 12.0587Z" fill="#FFEC2D"/>
<path d="M11.745 9.51399C11.8242 9.45965 11.8208 9.38977 11.7808 9.3299C11.7274 9.25008 11.3637 8.94327 11.3637 8.94327C11.3637 8.94327 11.5079 9.39675 11.5612 9.47657C11.6012 9.53644 11.6652 9.56732 11.745 9.51399Z" fill="#FFEC2D"/>
<path d="M14.5635 10.6823C14.5834 10.7762 14.6493 10.7998 14.7199 10.7858C14.814 10.7671 15.2367 10.5484 15.2367 10.5484C15.2367 10.5484 14.7625 10.5081 14.6684 10.5269C14.5978 10.5409 14.5447 10.5882 14.5635 10.6823Z" fill="#FFEC2D"/>
<path d="M13.1233 12.8398C13.0294 12.8598 13.0058 12.9256 13.0199 12.9962C13.0386 13.0904 13.2573 13.5131 13.2573 13.5131C13.2573 13.5131 13.2975 13.0389 13.2788 12.9447C13.2647 12.8741 13.2175 12.8211 13.1233 12.8398Z" fill="#FFEC2D"/>
<path d="M10.9639 11.3987C10.944 11.3048 10.8781 11.2812 10.8075 11.2953C10.7133 11.314 10.2907 11.5326 10.2907 11.5326C10.2907 11.5326 10.7648 11.5729 10.859 11.5542C10.9296 11.5401 10.9826 11.4929 10.9639 11.3987Z" fill="#FFEC2D"/>
<path d="M12.4079 9.24121C12.5018 9.2213 12.5254 9.15543 12.5114 9.08482C12.4927 8.99066 12.274 8.568 12.274 8.568C12.274 8.568 12.2337 9.04217 12.2525 9.13632C12.2665 9.20694 12.3137 9.25994 12.4079 9.24121Z" fill="#FFEC2D"/>
<path d="M12.4808 14.5381C12.4376 14.5405 12.3956 14.5461 12.3544 14.5593C12.298 14.5669 12.244 14.5865 12.188 14.5957L12.1656 14.5993L12.128 14.6029C12.1304 14.6133 12.132 14.6237 12.132 14.6341C12.132 14.6449 12.1308 14.6553 12.128 14.6641C12.1256 14.6725 12.118 14.6829 12.112 14.6893C12.104 14.6981 12.0956 14.7057 12.0856 14.7105C12.076 14.7153 12.0652 14.7173 12.0544 14.7181C12.0436 14.7185 12.0324 14.7181 12.022 14.7141C12.0112 14.7105 12.0012 14.7037 11.992 14.6957C11.9809 14.6984 11.9697 14.7004 11.9584 14.7017C11.9472 14.7029 11.9368 14.7029 11.9268 14.7017C11.9156 14.6985 11.904 14.6949 11.8932 14.6905C11.8823 14.686 11.8719 14.6805 11.862 14.6741C11.8212 14.6981 11.7756 14.7209 11.7508 14.7629C11.7368 14.7821 11.734 14.8041 11.7308 14.8269C11.7288 14.8549 11.736 14.8845 11.748 14.9105C11.7524 14.9181 11.756 14.8829 11.7696 14.8781C11.7924 14.8593 11.8208 14.8457 11.8496 14.8381C11.874 14.8257 11.8708 14.8389 11.8608 14.8581C11.8584 14.8681 11.8448 14.9061 11.8632 14.8869C11.9444 14.8509 12.0344 14.8437 12.122 14.8369C12.2492 14.8237 12.3768 14.8209 12.5044 14.8193L12.8644 14.8269C12.9216 14.8285 12.9792 14.8413 13.0356 14.8317C13.0492 14.8281 13.0704 14.8273 13.0784 14.8193C13.0528 14.8045 13.0228 14.8041 12.9944 14.8005H12.7656C12.702 14.7941 12.6356 14.7933 12.5756 14.7693C12.5596 14.7629 12.5448 14.7477 12.5296 14.7641C12.5068 14.7721 12.4824 14.7777 12.4584 14.7793C12.4164 14.7825 12.3744 14.7737 12.3356 14.7581C12.3636 14.7193 12.3972 14.6853 12.428 14.6493C12.4032 14.6453 12.3792 14.6401 12.3544 14.6341C12.398 14.6041 12.4384 14.5701 12.4808 14.5381Z" fill="#FFEC2D"/>
<path d="M14.3482 14.9526C14.2613 15.0048 14.1949 14.9123 14.1222 14.8845C14.0703 14.9127 14.0655 15.007 14.017 15.0517C13.959 15.1177 13.8879 15.0332 13.8932 14.9681C13.8238 15.0266 13.7887 15.1592 13.6765 15.1414C13.6233 15.0981 13.5838 15.007 13.5432 15.1107C13.5101 15.1613 13.4219 15.2334 13.3762 15.1569C13.3621 15.0894 13.3282 15.0099 13.2915 15.1172C13.2663 15.1931 13.1853 15.249 13.1069 15.2157C13.064 15.1807 13.1413 15.051 13.0867 15.0602C13.0051 15.1142 12.9577 15.2481 12.8438 15.2374C12.7996 15.1878 12.8706 15.1037 12.8221 15.0486C12.7649 15.1221 12.7014 15.2297 12.6024 15.2374C12.5545 15.1986 12.6042 15.0874 12.5737 15.0709C12.4721 15.1319 12.3649 15.2405 12.2371 15.2065C12.2869 15.016 12.495 14.9492 12.67 14.9343C12.971 14.8973 13.2878 14.9653 13.5774 14.8567C13.6242 14.8282 13.7376 14.7878 13.6973 14.7217C13.6615 14.6696 13.7903 14.69 13.8027 14.6291C13.795 14.5519 13.8618 14.5625 13.9271 14.5558C14.2196 14.5431 14.5085 14.6047 14.8002 14.6152C14.8222 14.7573 14.6646 14.8571 14.5376 14.8132C14.477 14.823 14.3861 14.6738 14.4039 14.7824C14.3917 14.8393 14.4003 14.9146 14.3482 14.9526M11.8594 14.6617C11.9271 14.7236 11.9746 14.65 12.0379 14.6231C12.2502 14.5501 12.4355 14.4224 12.6181 14.2949C12.7287 14.2034 12.8246 14.0846 12.9732 14.0549C13.2631 13.9673 13.5712 13.9779 13.8622 13.8971C14.0838 13.5937 14.4601 13.4855 14.7754 13.3111C14.8461 13.2891 14.8735 13.2308 14.8961 13.1665C15.0164 12.9766 15.1804 12.8082 15.3742 12.6933C15.466 12.6431 15.5754 12.6143 15.6793 12.6372C15.6718 12.7609 15.6009 12.8705 15.5152 12.956C15.5853 12.9545 15.6456 12.9102 15.7164 12.9127C15.7407 13.0396 15.6036 13.1061 15.5307 13.1851C15.5713 13.1945 15.7269 13.2063 15.6421 13.247C15.534 13.322 15.4106 13.3735 15.3109 13.4606C15.4029 13.4771 15.4134 13.4967 15.3198 13.53C15.2691 13.5643 15.1717 13.5763 15.1623 13.6432C15.2318 13.686 15.1303 13.7284 15.0911 13.7423C15.0162 13.7597 14.9375 13.7923 15.037 13.8492C14.9994 13.906 14.9186 13.9182 14.8527 13.9125C14.8727 13.977 14.9017 14.0491 14.818 14.0775C14.6306 14.2192 14.4105 14.3223 14.1748 14.3459C14.4693 14.3685 14.7725 14.3139 15.0241 14.1538C15.0573 14.1145 15.2315 14.0723 15.1341 14.0393C15.0882 14.0202 14.9899 13.999 14.9832 13.964C15.1195 13.8799 15.2912 13.9099 15.4378 13.8599C15.4416 13.8124 15.3263 13.8256 15.2833 13.8148C15.1808 13.8064 15.1868 13.7803 15.2856 13.7706C15.4107 13.7375 15.5524 13.731 15.6576 13.6494C15.5719 13.6097 15.4642 13.6447 15.3728 13.6123C15.5277 13.5445 15.7105 13.5377 15.8495 13.4358C15.9128 13.3654 15.7684 13.3874 15.7263 13.3891C15.6405 13.404 15.6008 13.363 15.6983 13.3273C15.8647 13.2046 16.0755 13.1249 16.1924 12.9469C16.2201 12.9071 16.2576 12.7871 16.1693 12.8303C16.0531 12.8689 15.9509 12.9995 15.8185 12.9591C16.0793 12.757 16.3275 12.5269 16.5057 12.2471C16.515 12.1665 16.3883 12.1577 16.3554 12.2211C16.1878 12.3825 16.0362 12.5731 15.8216 12.6743C16.0271 12.476 16.197 12.2412 16.3452 11.9979C16.3769 11.9255 16.4623 11.8384 16.416 11.7581C16.3413 11.6962 16.2478 11.7528 16.209 11.8268C16.0788 11.9969 15.9798 12.1953 15.8124 12.3338C15.959 12.054 16.1108 11.7561 16.1145 11.4333C16.1141 11.3668 16.1007 11.2689 16.0105 11.2813C15.9389 11.2942 15.9559 11.4013 15.9264 11.4554C15.8615 11.6759 15.831 11.9148 15.6978 12.1078C15.7278 11.9287 15.7802 11.7418 15.74 11.5609C15.7212 11.48 15.5906 11.5148 15.6074 11.5948C15.4514 12.3852 14.9211 13.0764 14.2275 13.4762C13.9099 13.6559 13.5552 13.7717 13.1944 13.8242C13.0973 13.8455 12.9923 13.833 12.8995 13.8661C12.6747 14.0385 12.5385 14.327 12.2539 14.4173C12.1263 14.4807 11.9599 14.4936 11.8687 14.6121C11.8608 14.6273 11.8591 14.6449 11.8594 14.6617Z" fill="#FFEC2D"/>
<path d="M12.7139 13.8595C12.6719 13.9358 12.6471 14.0234 12.5931 14.0917C12.4307 13.9438 12.1951 13.9487 11.989 13.9389C11.8189 13.9298 11.6339 13.9141 11.5022 13.7928C11.3638 13.6793 11.2507 13.5321 11.096 13.4401C10.9548 13.4017 10.8124 13.3536 10.6989 13.2568C10.4562 13.059 10.3173 12.7656 10.0802 12.5616C10.035 12.5171 9.98166 12.4826 9.93102 12.4449C9.8829 12.4566 9.90468 12.5605 9.8458 12.5075C9.81376 12.4847 9.73362 12.4825 9.7264 12.5143C9.79889 12.6099 9.87145 12.7189 9.8815 12.8411C9.83206 12.8462 9.74416 12.8307 9.71965 12.8491C9.7853 12.9475 9.86946 13.0348 9.96508 13.1042C9.91921 13.1116 9.82884 13.1076 9.81126 13.1261C9.90617 13.2034 10.0079 13.2825 10.1322 13.3024C10.1577 13.3359 10.095 13.4006 10.1477 13.4293C10.1782 13.4417 10.279 13.4626 10.2096 13.4974C10.162 13.5295 10.1796 13.6043 10.2406 13.6026C10.2791 13.6223 10.3656 13.6271 10.3723 13.6612C10.3382 13.6959 10.232 13.7371 10.3224 13.7696C10.4069 13.8165 10.5032 13.8469 10.5996 13.8502C10.5512 13.891 10.4916 13.9141 10.4418 13.9524C10.6644 14.0829 10.9111 14.1688 11.155 14.2514C11.2521 14.2839 11.3503 14.3141 11.4509 14.3332C11.1585 14.3163 10.8758 14.2297 10.6095 14.1112C10.4715 14.0507 10.3325 13.9922 10.191 13.94C10.2531 13.9078 10.3248 13.8999 10.3891 13.8719C10.2556 13.8452 10.1097 13.8364 9.99234 13.763C10.0103 13.7309 10.0785 13.7294 10.1163 13.713C10.1872 13.696 10.2312 13.6754 10.1312 13.6693C10.0303 13.6419 9.91463 13.6542 9.82574 13.5933C9.83147 13.5568 9.92449 13.5696 9.96238 13.5538C10.0101 13.5456 10.0631 13.5388 10.1013 13.5067C9.94532 13.442 9.74137 13.4878 9.61924 13.3501C9.59107 13.2976 9.70671 13.3399 9.73963 13.3312C9.82331 13.3312 9.91324 13.3578 9.99292 13.324C9.76571 13.2243 9.52234 13.1309 9.34906 12.9464C9.32982 12.9167 9.27217 12.8357 9.31868 12.8257C9.45355 12.8435 9.55117 12.9907 9.69544 12.9678C9.7146 12.9419 9.61163 12.8996 9.58592 12.8627C9.37559 12.6822 9.17144 12.4863 9.02402 12.2499C9.01388 12.1709 9.13799 12.1591 9.17067 12.2201C9.33153 12.375 9.47683 12.5558 9.67718 12.6616C9.74827 12.6961 9.63636 12.6208 9.62146 12.5935C9.43633 12.3785 9.2601 12.1515 9.13072 11.8983C9.10756 11.8527 9.06918 11.7701 9.13847 11.7458C9.20774 11.7111 9.27648 11.7583 9.31161 11.8179C9.44771 11.9895 9.54786 12.1935 9.71741 12.3366C9.57296 12.0562 9.41874 11.7612 9.41501 11.4386C9.41841 11.3761 9.42242 11.2815 9.50722 11.2841C9.57841 11.2733 9.56717 11.3644 9.5905 11.4079C9.66065 11.6449 9.69124 11.9014 9.83196 12.1106C9.80088 11.9348 9.75512 11.7538 9.78552 11.575C9.79253 11.5164 9.85859 11.4986 9.9017 11.5341C9.93656 11.6194 9.94382 11.7248 9.97559 11.816C10.1563 12.4342 10.5621 12.978 11.0909 13.3429C11.5264 13.6415 12.0432 13.8199 12.5707 13.8509C12.6184 13.8551 12.6662 13.8565 12.7139 13.8595" fill="#FFEC2D"/>
<path d="M12.044 14.6789C12.0597 14.6789 12.0724 14.6662 12.0724 14.6505C12.0724 14.6348 12.0597 14.6221 12.044 14.6221C12.0283 14.6221 12.0156 14.6348 12.0156 14.6505C12.0156 14.6662 12.0283 14.6789 12.044 14.6789Z" fill="#FFEC2D"/>
<path d="M12.0428 14.6579C12.0492 14.6579 12.0544 14.6527 12.0544 14.6463C12.0544 14.64 12.0492 14.6348 12.0428 14.6348C12.0364 14.6348 12.0312 14.64 12.0312 14.6463C12.0312 14.6527 12.0364 14.6579 12.0428 14.6579Z" fill="#FFEC2D" stroke="#FFEC2D" stroke-width="0.1905"/>
<path d="M1.24242 6.87523C1.24242 6.87523 1.1271 6.77832 1.08793 6.82693C1.02493 6.90511 1.28161 7.29455 1.28161 7.43168C1.28161 7.65679 1.1314 7.718 0.945931 7.75015C0.821479 7.77173 0.618823 7.74113 0.618823 7.74113C0.656983 7.68985 0.681799 7.67474 0.746095 7.67065C0.674515 7.63349 0.601627 7.55281 0.601627 7.42724C0.601627 7.23359 0.681343 7.15376 0.681343 6.93545C0.681343 6.81433 0.582031 6.66016 0.582031 6.66016C0.757579 6.67772 0.844579 6.84026 0.795079 6.97016C0.823015 6.97418 0.848383 6.96788 0.870175 6.94724C0.883015 6.98324 0.862735 7.02504 0.835579 7.06105C0.857455 7.07274 0.873523 7.06573 0.908371 7.05853C0.905059 7.09564 0.882835 7.13504 0.828451 7.17215C0.986263 7.13117 1.08337 7.24116 1.08337 7.35631C1.08337 7.44329 1.02242 7.50563 0.962839 7.50563C0.943591 7.50563 0.915307 7.4977 0.899359 7.48578C0.888103 7.50972 0.893899 7.54176 0.905479 7.5657C0.861823 7.55416 0.834103 7.52822 0.853831 7.47425C0.820291 7.47116 0.793615 7.45984 0.775471 7.43825C0.793855 7.41469 0.821755 7.40113 0.853831 7.40224C0.829411 7.35184 0.856627 7.32364 0.896287 7.30076C0.896287 7.30076 0.871063 7.40224 0.935467 7.40224C0.964423 7.40224 0.990811 7.3928 0.990811 7.35012C0.990811 7.31296 0.958327 7.26148 0.883219 7.26475C0.808111 7.26803 0.747235 7.31653 0.747235 7.43642C0.747235 7.54702 0.836443 7.60202 0.953995 7.60558C1.05999 7.60885 1.14 7.55143 1.14 7.44208C1.14 7.29654 0.929899 6.9648 0.929899 6.83512C0.929899 6.7378 1.0174 6.68348 1.10302 6.68348C1.21405 6.68348 1.30772 6.79342 1.30772 6.79342L1.2425 6.8752L1.24242 6.87523Z" fill="#FFEC2D"/>
<path d="M1.2677 9.50569C1.2677 9.74893 1.04933 9.87394 0.877726 9.87394C0.646534 9.87394 0.523438 9.73572 0.523438 9.55477C0.523438 9.45219 0.542229 9.38784 0.589521 9.28966L1.11936 8.18983C1.13787 8.15157 1.14385 8.10801 1.14385 8.04417C1.14385 7.94557 1.04821 7.86498 0.947926 7.8625C0.85651 7.86022 0.75691 7.94773 0.75691 8.04745C0.75691 8.16856 0.819742 8.22256 0.884254 8.22256C0.963646 8.22256 0.995277 8.18992 0.995277 8.13418C0.995277 8.09534 0.976522 8.07854 0.949558 8.07854C0.88147 8.07854 0.900586 8.1702 0.900586 8.1702C0.86677 8.16279 0.838977 8.12823 0.854865 8.08508C0.829188 8.07941 0.80601 8.06564 0.788746 8.0458C0.806998 8.0281 0.827937 8.01445 0.854865 8.0098C0.838917 7.95715 0.860229 7.93143 0.906297 7.92061C0.896997 7.94085 0.896686 7.95949 0.89977 7.97707C0.972286 7.95644 1.08344 7.98926 1.08344 8.11454C1.08344 8.23892 0.997113 8.34366 0.83527 8.31748C0.873765 8.33589 0.893349 8.37356 0.897309 8.41568C0.867909 8.40423 0.83527 8.4026 0.83527 8.4026C0.854194 8.43596 0.880473 8.46472 0.879345 8.53024C0.849345 8.5166 0.821469 8.49134 0.783021 8.50732C0.843381 8.6261 0.769222 8.78947 0.58057 8.82812C0.649618 8.74718 0.683422 8.6598 0.683422 8.5728C0.683422 8.29084 0.605062 8.24346 0.605062 8.04744C0.605062 7.96542 0.647218 7.87686 0.730773 7.81666V7.81994C0.675549 7.80514 0.640173 7.77795 0.619833 7.741C0.746013 7.70522 0.929434 7.70588 1.02791 7.74463C1.14111 7.75774 1.22015 7.84459 1.24343 7.88868C1.26671 7.93276 1.31193 8.09211 1.24343 8.23562L0.704649 9.378C0.681273 9.42798 0.66709 9.48099 0.66709 9.53839C0.66709 9.68275 0.799329 9.73315 0.874449 9.73315C0.964245 9.73315 1.05567 9.66475 1.05567 9.57931C1.05567 9.52518 1.02627 9.49257 0.983829 9.49257C0.882333 9.49257 0.888502 9.57891 0.908734 9.63332C0.845566 9.60492 0.808845 9.55422 0.818938 9.50076C0.783177 9.49585 0.749134 9.47889 0.717718 9.44347C0.742438 9.41227 0.772582 9.38866 0.818938 9.38782C0.798694 9.30488 0.854218 9.2698 0.908734 9.25035C0.89149 9.31123 0.880173 9.38128 0.983829 9.38128C1.05943 9.38128 1.11893 9.39438 1.15363 9.44348L1.16179 9.11942C1.16616 9.02224 1.03173 9.02502 0.946294 9.05395C0.978537 8.94202 1.04467 8.88151 1.19772 8.89683C1.16057 8.88129 1.12098 8.84634 1.12098 8.77899C1.121 8.68788 1.19492 8.58693 1.24345 8.55709L1.26771 9.5057L1.2677 9.50569Z" fill="#FFEC2D"/>
<path d="M1.2677 10.2355C1.2677 9.99228 1.04933 9.86727 0.877726 9.86727C0.646534 9.86727 0.523438 10.0055 0.523438 10.1864C0.523438 10.289 0.542229 10.3534 0.589521 10.4515L1.11936 11.5514C1.13787 11.5896 1.14385 11.6332 1.14385 11.697C1.14385 11.7956 1.04821 11.8762 0.947926 11.8787C0.85651 11.881 0.75691 11.7935 0.75691 11.6938C0.75691 11.5726 0.819742 11.5186 0.884254 11.5186C0.963646 11.5186 0.995277 11.5513 0.995277 11.607C0.995277 11.6459 0.976522 11.6627 0.949558 11.6627C0.88147 11.6627 0.900586 11.571 0.900586 11.571C0.86677 11.5784 0.838977 11.613 0.854865 11.6561C0.829188 11.6618 0.80601 11.6756 0.788746 11.6954C0.806998 11.7131 0.827937 11.7268 0.854865 11.7314C0.838917 11.7841 0.860229 11.8098 0.906297 11.8206C0.896997 11.8004 0.896686 11.7817 0.89977 11.7641C0.972286 11.7848 1.08344 11.752 1.08344 11.6267C1.08344 11.5023 0.997113 11.3976 0.83527 11.4237C0.873765 11.4053 0.893349 11.3677 0.897309 11.3255C0.867909 11.337 0.83527 11.3386 0.83527 11.3386C0.854194 11.3053 0.880473 11.2765 0.879345 11.211C0.849345 11.2246 0.821469 11.2499 0.783021 11.2339C0.843381 11.1151 0.769222 10.9517 0.58057 10.9131C0.649618 10.994 0.683422 11.0814 0.683422 11.1684C0.683422 11.4504 0.605062 11.4978 0.605062 11.6938C0.605062 11.7758 0.647218 11.8644 0.730773 11.9245V11.9213C0.675549 11.9361 0.640173 11.9633 0.619833 12.0002C0.746013 12.036 0.929434 12.0353 1.02791 11.9966C1.14111 11.9835 1.22015 11.8966 1.24343 11.8525C1.26671 11.8084 1.31193 11.6491 1.24343 11.5056L0.704649 10.3632C0.681273 10.3132 0.66709 10.2602 0.66709 10.2028C0.66709 10.0585 0.799329 10.0081 0.874449 10.0081C0.964245 10.0081 1.05567 10.0765 1.05567 10.1619C1.05567 10.216 1.02627 10.2486 0.983829 10.2486C0.882333 10.2486 0.888502 10.1623 0.908734 10.1079C0.845566 10.1363 0.808845 10.187 0.818938 10.2405C0.783177 10.2454 0.749134 10.2623 0.717718 10.2977C0.742438 10.3289 0.772582 10.3525 0.818938 10.3534C0.798694 10.4363 0.854218 10.4714 0.908734 10.4909C0.89149 10.43 0.880173 10.3599 0.983829 10.3599C1.05943 10.3599 1.11893 10.3468 1.15363 10.2977L1.16179 10.6218C1.16616 10.719 1.03173 10.7162 0.946294 10.6873C0.978537 10.7992 1.04467 10.8597 1.19772 10.8444C1.16057 10.8599 1.12098 10.8949 1.12098 10.9622C1.121 11.0533 1.19492 11.1543 1.24345 11.1841L1.26771 10.2355L1.2677 10.2355Z" fill="#FFEC2D"/>
<path d="M1.24587 6.87523C1.24587 6.87523 1.36119 6.77832 1.40035 6.82693C1.46335 6.90511 1.20667 7.29455 1.20667 7.43168C1.20667 7.65679 1.35688 7.718 1.54235 7.75015C1.6668 7.77173 1.86946 7.74113 1.86946 7.74113C1.8313 7.68985 1.80648 7.67474 1.74219 7.67065C1.81377 7.63349 1.88665 7.55281 1.88665 7.42724C1.88665 7.23359 1.80694 7.15376 1.80694 6.93545C1.80694 6.81433 1.90625 6.66016 1.90625 6.66016C1.7307 6.67772 1.6437 6.84026 1.6932 6.97016C1.66527 6.97418 1.6399 6.96788 1.61811 6.94724C1.60527 6.98324 1.62555 7.02504 1.6527 7.06105C1.63083 7.07274 1.61476 7.06573 1.57991 7.05853C1.58322 7.09564 1.60545 7.13504 1.65983 7.17215C1.50202 7.13117 1.40491 7.24116 1.40491 7.35631C1.40491 7.44329 1.46586 7.50563 1.52544 7.50563C1.54469 7.50563 1.57297 7.4977 1.58892 7.48578C1.60018 7.50972 1.59438 7.54176 1.5828 7.5657C1.62646 7.55416 1.65418 7.52822 1.63445 7.47425C1.66799 7.47116 1.69467 7.45984 1.71281 7.43825C1.69443 7.41469 1.66653 7.40113 1.63445 7.40224C1.65887 7.35184 1.63165 7.32364 1.59199 7.30076C1.59199 7.30076 1.61722 7.40224 1.55281 7.40224C1.52386 7.40224 1.49747 7.3928 1.49747 7.35012C1.49747 7.31296 1.52995 7.26148 1.60506 7.26475C1.68017 7.26803 1.74105 7.31653 1.74105 7.43642C1.74105 7.54702 1.65184 7.60202 1.53429 7.60558C1.42829 7.60885 1.34829 7.55143 1.34829 7.44208C1.34829 7.29654 1.55838 6.9648 1.55838 6.83512C1.55838 6.7378 1.47088 6.68348 1.38526 6.68348C1.27423 6.68348 1.18056 6.79342 1.18056 6.79342L1.24578 6.8752L1.24587 6.87523Z" fill="#FFEC2D"/>
<path d="M1.22058 9.50569C1.22058 9.74893 1.43896 9.87394 1.61056 9.87394C1.84175 9.87394 1.96484 9.73572 1.96484 9.55477C1.96484 9.45219 1.94605 9.38784 1.89876 9.28966L1.36892 8.18983C1.35041 8.15157 1.34443 8.10801 1.34443 8.04417C1.34443 7.94557 1.44007 7.86498 1.54036 7.8625C1.63177 7.86022 1.73137 7.94773 1.73137 8.04745C1.73137 8.16856 1.66854 8.22256 1.60403 8.22256C1.52464 8.22256 1.493 8.18992 1.493 8.13418C1.493 8.09534 1.51176 8.07854 1.53872 8.07854C1.60681 8.07854 1.5877 8.1702 1.5877 8.1702C1.62151 8.16279 1.6493 8.12823 1.63342 8.08508C1.65909 8.07941 1.68227 8.06564 1.69954 8.0458C1.68128 8.0281 1.66034 8.01445 1.63342 8.0098C1.64936 7.95715 1.62805 7.93143 1.58198 7.92061C1.59128 7.94085 1.5916 7.95949 1.58851 7.97707C1.516 7.95644 1.40484 7.98926 1.40484 8.11454C1.40484 8.23892 1.49117 8.34366 1.65301 8.31748C1.61452 8.33589 1.59493 8.37356 1.59097 8.41568C1.62037 8.40423 1.65301 8.4026 1.65301 8.4026C1.63409 8.43596 1.60781 8.46472 1.60894 8.53024C1.63894 8.5166 1.66681 8.49134 1.70526 8.50732C1.6449 8.6261 1.71906 8.78947 1.90771 8.82812C1.83866 8.74718 1.80486 8.6598 1.80486 8.5728C1.80486 8.29084 1.88322 8.24346 1.88322 8.04744C1.88322 7.96542 1.84106 7.87686 1.75751 7.81666V7.81994C1.81273 7.80514 1.84811 7.77795 1.86845 7.741C1.74227 7.70522 1.55885 7.70588 1.46038 7.74463C1.34717 7.75774 1.26814 7.84459 1.24486 7.88868C1.22158 7.93276 1.17635 8.09211 1.24486 8.23562L1.78363 9.378C1.80701 9.42798 1.82119 9.48099 1.82119 9.53839C1.82119 9.68275 1.68895 9.73315 1.61383 9.73315C1.52404 9.73315 1.43261 9.66475 1.43261 9.57931C1.43261 9.52518 1.46201 9.49257 1.50445 9.49257C1.60595 9.49257 1.59978 9.57891 1.57955 9.63332C1.64272 9.60492 1.67944 9.55422 1.66934 9.50076C1.7051 9.49585 1.73915 9.47889 1.77056 9.44347C1.74584 9.41227 1.7157 9.38866 1.66934 9.38782C1.68959 9.30488 1.63406 9.2698 1.57955 9.25035C1.59679 9.31123 1.60811 9.38128 1.50445 9.38128C1.42885 9.38128 1.36936 9.39438 1.33465 9.44348L1.32649 9.11942C1.32212 9.02224 1.45655 9.02502 1.54199 9.05395C1.50974 8.94202 1.44361 8.88151 1.29056 8.89683C1.32772 8.88129 1.3673 8.84634 1.3673 8.77899C1.36728 8.68788 1.29336 8.58693 1.24483 8.55709L1.22057 9.5057L1.22058 9.50569Z" fill="#FFEC2D"/>
<path d="M1.22058 10.2355C1.22058 9.99228 1.43896 9.86727 1.61056 9.86727C1.84175 9.86727 1.96484 10.0055 1.96484 10.1864C1.96484 10.289 1.94605 10.3534 1.89876 10.4515L1.36892 11.5514C1.35041 11.5896 1.34443 11.6332 1.34443 11.697C1.34443 11.7956 1.44007 11.8762 1.54036 11.8787C1.63177 11.881 1.73137 11.7935 1.73137 11.6938C1.73137 11.5726 1.66854 11.5186 1.60403 11.5186C1.52464 11.5186 1.493 11.5513 1.493 11.607C1.493 11.6459 1.51176 11.6627 1.53872 11.6627C1.60681 11.6627 1.5877 11.571 1.5877 11.571C1.62151 11.5784 1.6493 11.613 1.63342 11.6561C1.65909 11.6618 1.68227 11.6756 1.69954 11.6954C1.68128 11.7131 1.66034 11.7268 1.63342 11.7314C1.64936 11.7841 1.62805 11.8098 1.58198 11.8206C1.59128 11.8004 1.5916 11.7817 1.58851 11.7641C1.516 11.7848 1.40484 11.752 1.40484 11.6267C1.40484 11.5023 1.49117 11.3976 1.65301 11.4237C1.61452 11.4053 1.59493 11.3677 1.59097 11.3255C1.62037 11.337 1.65301 11.3386 1.65301 11.3386C1.63409 11.3053 1.60781 11.2765 1.60894 11.211C1.63894 11.2246 1.66681 11.2499 1.70526 11.2339C1.6449 11.1151 1.71906 10.9517 1.90771 10.9131C1.83866 10.994 1.80486 11.0814 1.80486 11.1684C1.80486 11.4504 1.88322 11.4978 1.88322 11.6938C1.88322 11.7758 1.84106 11.8644 1.75751 11.9245V11.9213C1.81273 11.9361 1.84811 11.9633 1.86845 12.0002C1.74227 12.036 1.55885 12.0353 1.46038 11.9966C1.34717 11.9835 1.26814 11.8966 1.24486 11.8525C1.22158 11.8084 1.17635 11.6491 1.24486 11.5056L1.78363 10.3632C1.80701 10.3132 1.82119 10.2602 1.82119 10.2028C1.82119 10.0585 1.68895 10.0081 1.61383 10.0081C1.52404 10.0081 1.43261 10.0765 1.43261 10.1619C1.43261 10.216 1.46201 10.2486 1.50445 10.2486C1.60595 10.2486 1.59978 10.1623 1.57955 10.1079C1.64272 10.1363 1.67944 10.187 1.66934 10.2405C1.7051 10.2454 1.73915 10.2623 1.77056 10.2977C1.74584 10.3289 1.7157 10.3525 1.66934 10.3534C1.68959 10.4363 1.63406 10.4714 1.57955 10.4909C1.59679 10.43 1.60811 10.3599 1.50445 10.3599C1.42885 10.3599 1.36936 10.3468 1.33465 10.2977L1.32649 10.6218C1.32212 10.719 1.45655 10.7162 1.54199 10.6873C1.50974 10.7992 1.44361 10.8597 1.29056 10.8444C1.32772 10.8599 1.3673 10.8949 1.3673 10.9622C1.36728 11.0533 1.29336 11.1543 1.24483 11.1841L1.22057 10.2355L1.22058 10.2355Z" fill="#FFEC2D"/>
<path d="M1.24242 17.1248C1.24242 17.1248 1.1271 17.2217 1.08793 17.1731C1.02493 17.0949 1.28161 16.7055 1.28161 16.5683C1.28161 16.3432 1.1314 16.282 0.945931 16.2498C0.821479 16.2283 0.618823 16.2589 0.618823 16.2589C0.656983 16.3101 0.681799 16.3253 0.746095 16.3293C0.674515 16.3665 0.601627 16.4472 0.601627 16.5728C0.601627 16.7664 0.681343 16.8462 0.681343 17.0646C0.681343 17.1857 0.582031 17.3398 0.582031 17.3398C0.757579 17.3223 0.844579 17.1597 0.795079 17.0298C0.823015 17.0258 0.848383 17.0321 0.870175 17.0528C0.883015 17.0168 0.862735 16.975 0.835579 16.9389C0.857455 16.9273 0.873523 16.9343 0.908371 16.9415C0.905059 16.9044 0.882835 16.865 0.828451 16.8279C0.986263 16.8688 1.08337 16.7588 1.08337 16.6437C1.08337 16.5567 1.02242 16.4944 0.962839 16.4944C0.943591 16.4944 0.915307 16.5023 0.899359 16.5142C0.888103 16.4903 0.893899 16.4582 0.905479 16.4343C0.861823 16.4458 0.834103 16.4718 0.853831 16.5258C0.820291 16.5288 0.793615 16.5402 0.775471 16.5618C0.793855 16.5853 0.821755 16.5989 0.853831 16.5978C0.829411 16.6482 0.856627 16.6764 0.896287 16.6992C0.896287 16.6992 0.871063 16.5978 0.935467 16.5978C0.964423 16.5978 0.990811 16.6072 0.990811 16.6499C0.990811 16.687 0.958327 16.7385 0.883219 16.7352C0.808111 16.732 0.747235 16.6835 0.747235 16.5636C0.747235 16.453 0.836443 16.398 0.953995 16.3944C1.05999 16.3911 1.14 16.4486 1.14 16.5579C1.14 16.7035 0.929899 17.0352 0.929899 17.1649C0.929899 17.2622 1.0174 17.3165 1.10302 17.3165C1.21405 17.3165 1.30772 17.2066 1.30772 17.2066L1.2425 17.1248L1.24242 17.1248Z" fill="#FFEC2D"/>
<path d="M1.2677 14.4943C1.2677 14.2511 1.04933 14.1261 0.877726 14.1261C0.646534 14.1261 0.523438 14.2643 0.523438 14.4452C0.523438 14.5478 0.542229 14.6122 0.589521 14.7103L1.11936 15.8102C1.13787 15.8484 1.14385 15.892 1.14385 15.9558C1.14385 16.0544 1.04821 16.135 0.947926 16.1375C0.85651 16.1398 0.75691 16.0523 0.75691 15.9526C0.75691 15.8314 0.819742 15.7774 0.884254 15.7774C0.963646 15.7774 0.995277 15.8101 0.995277 15.8658C0.995277 15.9047 0.976522 15.9215 0.949558 15.9215C0.88147 15.9215 0.900586 15.8298 0.900586 15.8298C0.86677 15.8372 0.838977 15.8718 0.854865 15.9149C0.829188 15.9206 0.80601 15.9344 0.788746 15.9542C0.806998 15.9719 0.827937 15.9856 0.854865 15.9902C0.838917 16.0429 0.860229 16.0686 0.906297 16.0794C0.896997 16.0591 0.896686 16.0405 0.89977 16.0229C0.972286 16.0436 1.08344 16.0107 1.08344 15.8855C1.08344 15.7611 0.997113 15.6563 0.83527 15.6825C0.873765 15.6641 0.893349 15.6264 0.897309 15.5843C0.867909 15.5958 0.83527 15.5974 0.83527 15.5974C0.854194 15.564 0.880473 15.5353 0.879345 15.4698C0.849345 15.4834 0.821469 15.5087 0.783021 15.4927C0.843381 15.3739 0.769222 15.2105 0.58057 15.1719C0.649618 15.2528 0.683422 15.3402 0.683422 15.4272C0.683422 15.7092 0.605062 15.7565 0.605062 15.9526C0.605062 16.0346 0.647218 16.1231 0.730773 16.1833V16.1801C0.675549 16.1949 0.640173 16.222 0.619833 16.259C0.746013 16.2948 0.929434 16.2941 1.02791 16.2554C1.14111 16.2423 1.22015 16.1554 1.24343 16.1113C1.26671 16.0672 1.31193 15.9079 1.24343 15.7644L0.704649 14.622C0.681273 14.572 0.66709 14.519 0.66709 14.4616C0.66709 14.3173 0.799329 14.2669 0.874449 14.2669C0.964245 14.2669 1.05567 14.3353 1.05567 14.4207C1.05567 14.4748 1.02627 14.5074 0.983829 14.5074C0.882333 14.5074 0.888502 14.4211 0.908734 14.3667C0.845566 14.3951 0.808845 14.4458 0.818938 14.4992C0.783177 14.5042 0.749134 14.5211 0.717718 14.5565C0.742438 14.5877 0.772582 14.6113 0.818938 14.6122C0.798694 14.6951 0.854218 14.7302 0.908734 14.7496C0.89149 14.6888 0.880173 14.6187 0.983829 14.6187C1.05943 14.6187 1.11893 14.6056 1.15363 14.5565L1.16179 14.8806C1.16616 14.9778 1.03173 14.975 0.946294 14.9461C0.978537 15.058 1.04467 15.1185 1.19772 15.1032C1.16057 15.1187 1.12098 15.1537 1.12098 15.221C1.121 15.3121 1.19492 15.4131 1.24345 15.4429L1.26771 14.4943L1.2677 14.4943Z" fill="#FFEC2D"/>
<path d="M1.2677 13.7645C1.2677 14.0077 1.04933 14.1327 0.877726 14.1327C0.646534 14.1327 0.523438 13.9945 0.523438 13.8136C0.523438 13.711 0.542229 13.6466 0.589521 13.5485L1.11936 12.4486C1.13787 12.4104 1.14385 12.3668 1.14385 12.303C1.14385 12.2044 1.04821 12.1238 0.947926 12.1213C0.85651 12.119 0.75691 12.2065 0.75691 12.3062C0.75691 12.4274 0.819742 12.4814 0.884254 12.4814C0.963646 12.4814 0.995277 12.4487 0.995277 12.393C0.995277 12.3541 0.976522 12.3373 0.949558 12.3373C0.88147 12.3373 0.900586 12.429 0.900586 12.429C0.86677 12.4216 0.838977 12.387 0.854865 12.3439C0.829188 12.3382 0.80601 12.3244 0.788746 12.3046C0.806998 12.2869 0.827937 12.2732 0.854865 12.2686C0.838917 12.2159 0.860229 12.1902 0.906297 12.1794C0.896997 12.1996 0.896686 12.2183 0.89977 12.2359C0.972286 12.2152 1.08344 12.248 1.08344 12.3733C1.08344 12.4977 0.997113 12.6024 0.83527 12.5763C0.873765 12.5947 0.893349 12.6323 0.897309 12.6745C0.867909 12.663 0.83527 12.6614 0.83527 12.6614C0.854194 12.6947 0.880473 12.7235 0.879345 12.789C0.849345 12.7754 0.821469 12.7501 0.783021 12.7661C0.843381 12.8849 0.769222 13.0483 0.58057 13.0869C0.649618 13.006 0.683422 12.9186 0.683422 12.8316C0.683422 12.5496 0.605062 12.5022 0.605062 12.3062C0.605062 12.2242 0.647218 12.1356 0.730773 12.0755V12.0787C0.675549 12.0639 0.640173 12.0367 0.619833 11.9998C0.746013 11.964 0.929434 11.9647 1.02791 12.0034C1.14111 12.0165 1.22015 12.1034 1.24343 12.1475C1.26671 12.1916 1.31193 12.3509 1.24343 12.4944L0.704649 13.6368C0.681273 13.6868 0.66709 13.7398 0.66709 13.7972C0.66709 13.9415 0.799329 13.9919 0.874449 13.9919C0.964245 13.9919 1.05567 13.9235 1.05567 13.8381C1.05567 13.784 1.02627 13.7514 0.983829 13.7514C0.882333 13.7514 0.888502 13.8377 0.908734 13.8921C0.845566 13.8637 0.808845 13.813 0.818938 13.7595C0.783177 13.7546 0.749134 13.7377 0.717718 13.7023C0.742438 13.6711 0.772582 13.6475 0.818938 13.6466C0.798694 13.5637 0.854218 13.5286 0.908734 13.5091C0.89149 13.57 0.880173 13.6401 0.983829 13.6401C1.05943 13.6401 1.11893 13.6532 1.15363 13.7023L1.16179 13.3782C1.16616 13.281 1.03173 13.2838 0.946294 13.3127C0.978537 13.2008 1.04467 13.1403 1.19772 13.1556C1.16057 13.1401 1.12098 13.1051 1.12098 13.0378C1.121 12.9467 1.19492 12.8457 1.24345 12.8159L1.26771 13.7645L1.2677 13.7645Z" fill="#FFEC2D"/>
<path d="M1.24587 17.1248C1.24587 17.1248 1.36119 17.2217 1.40035 17.1731C1.46335 17.0949 1.20667 16.7055 1.20667 16.5683C1.20667 16.3432 1.35688 16.282 1.54235 16.2498C1.6668 16.2283 1.86946 16.2589 1.86946 16.2589C1.8313 16.3101 1.80648 16.3253 1.74219 16.3293C1.81377 16.3665 1.88665 16.4472 1.88665 16.5728C1.88665 16.7664 1.80694 16.8462 1.80694 17.0646C1.80694 17.1857 1.90625 17.3398 1.90625 17.3398C1.7307 17.3223 1.6437 17.1597 1.6932 17.0298C1.66527 17.0258 1.6399 17.0321 1.61811 17.0528C1.60527 17.0168 1.62555 16.975 1.6527 16.9389C1.63083 16.9273 1.61476 16.9343 1.57991 16.9415C1.58322 16.9044 1.60545 16.865 1.65983 16.8279C1.50202 16.8688 1.40491 16.7588 1.40491 16.6437C1.40491 16.5567 1.46586 16.4944 1.52544 16.4944C1.54469 16.4944 1.57297 16.5023 1.58892 16.5142C1.60018 16.4903 1.59438 16.4582 1.5828 16.4343C1.62646 16.4458 1.65418 16.4718 1.63445 16.5258C1.66799 16.5288 1.69467 16.5402 1.71281 16.5618C1.69443 16.5853 1.66653 16.5989 1.63445 16.5978C1.65887 16.6482 1.63165 16.6764 1.59199 16.6992C1.59199 16.6992 1.61722 16.5978 1.55281 16.5978C1.52386 16.5978 1.49747 16.6072 1.49747 16.6499C1.49747 16.687 1.52995 16.7385 1.60506 16.7352C1.68017 16.732 1.74105 16.6835 1.74105 16.5636C1.74105 16.453 1.65184 16.398 1.53429 16.3944C1.42829 16.3911 1.34829 16.4486 1.34829 16.5579C1.34829 16.7035 1.55838 17.0352 1.55838 17.1649C1.55838 17.2622 1.47088 17.3165 1.38526 17.3165C1.27423 17.3165 1.18056 17.2066 1.18056 17.2066L1.24578 17.1248L1.24587 17.1248Z" fill="#FFEC2D"/>
<path d="M1.22058 14.4943C1.22058 14.2511 1.43896 14.1261 1.61056 14.1261C1.84175 14.1261 1.96484 14.2643 1.96484 14.4452C1.96484 14.5478 1.94605 14.6122 1.89876 14.7103L1.36892 15.8102C1.35041 15.8484 1.34443 15.892 1.34443 15.9558C1.34443 16.0544 1.44007 16.135 1.54036 16.1375C1.63177 16.1398 1.73137 16.0523 1.73137 15.9526C1.73137 15.8314 1.66854 15.7774 1.60403 15.7774C1.52464 15.7774 1.493 15.8101 1.493 15.8658C1.493 15.9047 1.51176 15.9215 1.53872 15.9215C1.60681 15.9215 1.5877 15.8298 1.5877 15.8298C1.62151 15.8372 1.6493 15.8718 1.63342 15.9149C1.65909 15.9206 1.68227 15.9344 1.69954 15.9542C1.68128 15.9719 1.66034 15.9856 1.63342 15.9902C1.64936 16.0429 1.62805 16.0686 1.58198 16.0794C1.59128 16.0591 1.5916 16.0405 1.58851 16.0229C1.516 16.0436 1.40484 16.0107 1.40484 15.8855C1.40484 15.7611 1.49117 15.6563 1.65301 15.6825C1.61452 15.6641 1.59493 15.6264 1.59097 15.5843C1.62037 15.5958 1.65301 15.5974 1.65301 15.5974C1.63409 15.564 1.60781 15.5353 1.60894 15.4698C1.63894 15.4834 1.66681 15.5087 1.70526 15.4927C1.6449 15.3739 1.71906 15.2105 1.90771 15.1719C1.83866 15.2528 1.80486 15.3402 1.80486 15.4272C1.80486 15.7092 1.88322 15.7565 1.88322 15.9526C1.88322 16.0346 1.84106 16.1231 1.75751 16.1833V16.1801C1.81273 16.1949 1.84811 16.222 1.86845 16.259C1.74227 16.2948 1.55885 16.2941 1.46038 16.2554C1.34717 16.2423 1.26814 16.1554 1.24486 16.1113C1.22158 16.0672 1.17635 15.9079 1.24486 15.7644L1.78363 14.622C1.80701 14.572 1.82119 14.519 1.82119 14.4616C1.82119 14.3173 1.68895 14.2669 1.61383 14.2669C1.52404 14.2669 1.43261 14.3353 1.43261 14.4207C1.43261 14.4748 1.46201 14.5074 1.50445 14.5074C1.60595 14.5074 1.59978 14.4211 1.57955 14.3667C1.64272 14.3951 1.67944 14.4458 1.66934 14.4992C1.7051 14.5042 1.73915 14.5211 1.77056 14.5565C1.74584 14.5877 1.7157 14.6113 1.66934 14.6122C1.68959 14.6951 1.63406 14.7302 1.57955 14.7496C1.59679 14.6888 1.60811 14.6187 1.50445 14.6187C1.42885 14.6187 1.36936 14.6056 1.33465 14.5565L1.32649 14.8806C1.32212 14.9778 1.45655 14.975 1.54199 14.9461C1.50974 15.058 1.44361 15.1185 1.29056 15.1032C1.32772 15.1187 1.3673 15.1537 1.3673 15.221C1.36728 15.3121 1.29336 15.4131 1.24483 15.4429L1.22057 14.4943L1.22058 14.4943Z" fill="#FFEC2D"/>
<path d="M1.22058 13.7645C1.22058 14.0077 1.43896 14.1327 1.61056 14.1327C1.84175 14.1327 1.96484 13.9945 1.96484 13.8136C1.96484 13.711 1.94605 13.6466 1.89876 13.5485L1.36892 12.4486C1.35041 12.4104 1.34443 12.3668 1.34443 12.303C1.34443 12.2044 1.44007 12.1238 1.54036 12.1213C1.63177 12.119 1.73137 12.2065 1.73137 12.3062C1.73137 12.4274 1.66854 12.4814 1.60403 12.4814C1.52464 12.4814 1.493 12.4487 1.493 12.393C1.493 12.3541 1.51176 12.3373 1.53872 12.3373C1.60681 12.3373 1.5877 12.429 1.5877 12.429C1.62151 12.4216 1.6493 12.387 1.63342 12.3439C1.65909 12.3382 1.68227 12.3244 1.69954 12.3046C1.68128 12.2869 1.66034 12.2732 1.63342 12.2686C1.64936 12.2159 1.62805 12.1902 1.58198 12.1794C1.59128 12.1996 1.5916 12.2183 1.58851 12.2359C1.516 12.2152 1.40484 12.248 1.40484 12.3733C1.40484 12.4977 1.49117 12.6024 1.65301 12.5763C1.61452 12.5947 1.59493 12.6323 1.59097 12.6745C1.62037 12.663 1.65301 12.6614 1.65301 12.6614C1.63409 12.6947 1.60781 12.7235 1.60894 12.789C1.63894 12.7754 1.66681 12.7501 1.70526 12.7661C1.6449 12.8849 1.71906 13.0483 1.90771 13.0869C1.83866 13.006 1.80486 12.9186 1.80486 12.8316C1.80486 12.5496 1.88322 12.5022 1.88322 12.3062C1.88322 12.2242 1.84106 12.1356 1.75751 12.0755V12.0787C1.81273 12.0639 1.84811 12.0367 1.86845 11.9998C1.74227 11.964 1.55885 11.9647 1.46038 12.0034C1.34717 12.0165 1.26814 12.1034 1.24486 12.1475C1.22158 12.1916 1.17635 12.3509 1.24486 12.4944L1.78363 13.6368C1.80701 13.6868 1.82119 13.7398 1.82119 13.7972C1.82119 13.9415 1.68895 13.9919 1.61383 13.9919C1.52404 13.9919 1.43261 13.9235 1.43261 13.8381C1.43261 13.784 1.46201 13.7514 1.50445 13.7514C1.60595 13.7514 1.59978 13.8377 1.57955 13.8921C1.64272 13.8637 1.67944 13.813 1.66934 13.7595C1.7051 13.7546 1.73915 13.7377 1.77056 13.7023C1.74584 13.6711 1.7157 13.6475 1.66934 13.6466C1.68959 13.5637 1.63406 13.5286 1.57955 13.5091C1.59679 13.57 1.60811 13.6401 1.50445 13.6401C1.42885 13.6401 1.36936 13.6532 1.33465 13.7023L1.32649 13.3782C1.32212 13.281 1.45655 13.2838 1.54199 13.3127C1.50974 13.2008 1.44361 13.1403 1.29056 13.1556C1.32772 13.1401 1.3673 13.1051 1.3673 13.0378C1.36728 12.9467 1.29336 12.8457 1.24483 12.8159L1.22057 13.7645L1.22058 13.7645Z" fill="#FFEC2D"/>
</g>
<defs>
<clipPath id="clip0_1_10434">
<rect width="24" height="24" fill="white" transform="translate(0.304688)"/>
</clipPath>
</defs>
</svg>
