<svg width="132" height="25" viewBox="0 0 132 25" fill="none" xmlns="http://www.w3.org/2000/svg">
<path d="M12 0.204102L14.6942 8.4959H23.4127L16.3593 13.6205L19.0534 21.9123L12 16.7877L4.94658 21.9123L7.64074 13.6205L0.587322 8.4959H9.30583L12 0.204102Z" fill="#FFD481"/>
<path d="M39 0.204102L41.6942 8.4959H50.4127L43.3593 13.6205L46.0534 21.9123L39 16.7877L31.9466 21.9123L34.6407 13.6205L27.5873 8.4959H36.3058L39 0.204102Z" fill="#FFD481"/>
<path d="M66 0.204102L68.6942 8.4959H77.4127L70.3593 13.6205L73.0534 21.9123L66 16.7877L58.9466 21.9123L61.6407 13.6205L54.5873 8.4959H63.3058L66 0.204102Z" fill="#FFD481"/>
<path d="M93 0.204102L95.6942 8.4959H104.413L97.3593 13.6205L100.053 21.9123L93 16.7877L85.9466 21.9123L88.6407 13.6205L81.5873 8.4959H90.3058L93 0.204102Z" fill="#FFD481"/>
<path d="M120 0.204102L122.694 8.4959H131.413L124.359 13.6205L127.053 21.9123L120 16.7877L112.947 21.9123L115.641 13.6205L108.587 8.4959H117.306L120 0.204102Z" fill="#FFD481"/>
</svg>
