<svg width="48" height="49" viewBox="0 0 48 49" fill="none" xmlns="http://www.w3.org/2000/svg">
<g clip-path="url(#clip0_1_971)">
<path fill-rule="evenodd" clip-rule="evenodd" d="M21.7011 0.598727C18.7388 0.906602 15.9353 1.7152 13.3567 3.00548C4.84869 7.26266 -0.325462 15.9344 0.0288193 25.3429C0.291601 32.3238 3.4101 38.6007 8.85632 43.1109C11.4434 45.2534 15.2683 47.1243 18.6063 47.8801C20.6339 48.3392 21.6429 48.4449 23.9969 48.4449C26.3329 48.4449 27.3454 48.3403 29.3407 47.8925C35.2506 46.5665 40.5427 42.9059 43.9819 37.7648C46.115 34.5763 47.6195 30.3225 47.8697 26.7726C47.9034 26.2957 47.9669 25.9054 48.0108 25.9054C48.0547 25.9054 48.09 25.2199 48.0893 24.382C48.0883 23.3638 48.0577 22.9051 47.9969 22.9992C47.9321 23.0996 47.9056 22.9959 47.9046 22.6362C47.901 21.3621 47.3754 18.7635 46.7278 16.8176C46.2098 15.261 44.9656 12.7067 44.0642 11.3489C40.2027 5.53232 34.3397 1.80416 27.3719 0.734665C26.1928 0.553633 22.8956 0.474602 21.7011 0.598727ZM34.2157 15.0281C34.0868 15.0695 32.104 15.8291 29.8094 16.716C27.5149 17.6029 24.2876 18.8489 22.6376 19.4848C12.5249 23.3819 10.8006 24.056 10.4645 24.2439C9.92938 24.543 9.68666 24.8995 9.79963 25.2206C9.84857 25.3598 10.0154 25.5477 10.1703 25.6382C10.563 25.8675 16.4897 27.7107 16.6744 27.6609C16.7573 27.6386 19.9258 25.667 23.7157 23.2797C29.1332 19.8669 30.6744 18.937 30.9247 18.9299C31.6175 18.9105 32.1382 18.4059 22.286 27.3014C20.3971 29.0069 19.9657 29.4413 19.9657 29.638C19.9657 29.7708 19.8777 31.1192 19.77 32.6344C19.6625 34.1495 19.5962 35.4109 19.6228 35.4374C19.6493 35.4641 19.8093 35.4554 19.9783 35.4182C20.2032 35.3689 20.7423 34.9149 21.9862 33.7276L23.6866 32.1045L26.6777 34.3133C28.3229 35.5281 29.8046 36.5802 29.9705 36.6512C30.6531 36.9435 31.3216 36.735 31.6332 36.1327C31.8493 35.7148 35.8094 16.9135 35.8094 16.3053C35.8094 15.6396 35.6132 15.2439 35.1969 15.0699C34.8479 14.9241 34.5755 14.9125 34.2157 15.0281ZM0.0351006 24.4992C0.0351006 25.3499 0.0493506 25.698 0.0666943 25.2726C0.0840381 24.8472 0.0840381 24.1511 0.0666943 23.7257C0.0493506 23.3004 0.0351006 23.6484 0.0351006 24.4992Z" fill="#4ED3FD"/>
</g>
<defs>
<clipPath id="clip0_1_971">
<rect width="48" height="48" fill="white" transform="translate(0 0.499023)"/>
</clipPath>
</defs>
</svg>
