<svg width="49" height="49" viewBox="0 0 49 49" fill="none" xmlns="http://www.w3.org/2000/svg">
<g clip-path="url(#clip0_1_969)">
<path fill-rule="evenodd" clip-rule="evenodd" d="M22.2958 0.604641C14.1619 1.38024 6.96526 6.23461 3.20533 13.4821C0.37689 18.934 -0.238579 25.1177 1.45098 31.1083C2.05445 33.2482 3.14017 35.6299 4.3758 37.5248L5.07526 38.5975L3.58417 43.0015C2.76405 45.4237 2.10508 47.4175 2.1197 47.4321C2.13423 47.4467 4.18201 46.8068 6.67023 46.01C9.15845 45.2132 11.2314 44.5614 11.2766 44.5614C11.322 44.5614 11.7105 44.7798 12.14 45.0467C14.4639 46.4913 17.7182 47.6905 20.6083 48.1672C27.2311 49.2596 33.877 47.5515 39.3115 43.36C40.3367 42.5692 42.5693 40.3367 43.36 39.3114C46.712 34.9655 48.4053 30.0766 48.5666 24.2793C48.5879 23.5175 48.5677 23.0033 48.5178 23.0341C48.471 23.063 48.4066 22.7193 48.3745 22.2693C48.0707 18.0166 46.2382 13.418 43.36 9.68639C42.5693 8.66114 40.3367 6.42858 39.3115 5.6378C34.3686 1.82545 28.3046 0.0317348 22.2958 0.604641ZM14.355 11.6365C14.0095 11.7299 13.5665 11.9191 13.3706 12.0571C12.763 12.485 11.8622 13.6177 11.4165 14.5145C10.8073 15.7401 10.6111 16.5973 10.601 18.077C10.5925 19.324 10.6585 19.7192 11.11 21.1239C12.07 24.1109 15.7496 29.0313 19.3427 32.133C22.0614 34.4797 24.2941 35.7098 28.3427 37.0915C31.2703 38.0906 33.2203 38.1544 35.1396 37.3141C35.8848 36.9877 36.8595 36.3892 37.357 35.9524C38.2821 35.1402 38.8187 33.8028 38.9093 32.0836L38.9617 31.0902L38.6443 30.85C38.3186 30.6034 33.3305 28.1716 32.7584 27.9804C32.5831 27.9218 32.2766 27.8739 32.0773 27.8739C31.5985 27.8739 31.3044 28.1518 30.1446 29.699C29.0417 31.1703 28.7804 31.3739 28.0615 31.322C26.6645 31.2212 23.5322 29.3581 21.4562 27.393C20.1933 26.1976 18.1279 23.4824 17.8288 22.6244C17.6798 22.1967 17.8495 21.8858 18.8494 20.7549C19.8233 19.6534 20.2408 18.9349 20.1553 18.5074C20.089 18.1754 17.8098 12.686 17.5303 12.185C17.2436 11.671 16.92 11.537 15.874 11.4991C15.224 11.4754 14.8135 11.5126 14.355 11.6365ZM0.535984 24.3583C0.536077 25.0801 0.550796 25.3631 0.568609 24.987C0.586515 24.6109 0.586327 24.0203 0.568421 23.6745C0.550421 23.3287 0.535796 23.6364 0.535984 24.3583Z" fill="#0CA753"/>
</g>
<defs>
<clipPath id="clip0_1_969">
<rect width="48" height="48" fill="white" transform="translate(0.5 0.499023)"/>
</clipPath>
</defs>
</svg>
