<svg width="49" height="49" viewBox="0 0 49 49" fill="none" xmlns="http://www.w3.org/2000/svg">
<g clip-path="url(#clip0_1_973)">
<path fill-rule="evenodd" clip-rule="evenodd" d="M22.6728 0.555463C17.7423 1.06162 13.6899 2.61018 9.97706 5.40693C8.86613 6.24374 6.99056 8.04618 6.01462 9.21487C3.15703 12.6369 1.34269 16.8237 0.670969 21.5456C0.514125 22.6482 0.514125 26.3493 0.670969 27.4519C1.0545 30.1477 1.78706 32.6075 2.87484 34.8511C4.17947 37.5424 5.39587 39.2426 7.57641 41.4232C9.76013 43.6069 11.4761 44.8339 14.1361 46.1136C17.2174 47.596 20.2531 48.3434 23.696 48.4672C31.5014 48.7478 38.9335 45.1883 43.6941 38.8894C46.2849 35.4611 48.0907 30.7852 48.3737 26.7722C48.4073 26.2953 48.4708 25.905 48.5148 25.905C48.5587 25.905 48.594 25.2195 48.5933 24.3816C48.5924 23.5372 48.5571 22.9128 48.5139 22.9808C48.4676 23.054 48.412 22.751 48.3765 22.2308C48.1058 18.2678 46.3189 13.6117 43.7584 10.1966C39.875 5.0175 34.3549 1.72874 27.8759 0.734245C26.9325 0.589401 23.4931 0.471276 22.6728 0.555463ZM18.6164 10.816C15.6475 11.0153 13.6789 11.99 12.258 13.964C11.3989 15.1575 10.9628 16.6093 10.8162 18.7634C10.695 20.5445 10.695 28.453 10.8162 30.2341C11.0033 32.9849 11.6897 34.6867 13.1792 36.0928C14.5806 37.4158 16.1625 38.0056 18.7916 38.185C20.5392 38.3044 28.4626 38.3044 30.2102 38.185C32.8582 38.0043 34.4445 37.4047 35.8684 36.0467C37.3153 34.6664 38.0006 32.941 38.1872 30.208C38.3072 28.4504 38.3062 20.5343 38.1856 18.7634C38.0069 16.137 37.4292 14.599 36.0835 13.1671C34.6961 11.6909 32.9812 11.0008 30.2362 10.8141C28.6693 10.7074 20.2121 10.7089 18.6164 10.816ZM21.1259 13.2611C17.622 13.3272 17.1382 13.3924 16.0034 13.9507C14.7139 14.5852 13.8308 15.7739 13.4605 17.3737C13.3145 18.0049 13.2978 18.7348 13.2978 24.4987C13.2978 30.3787 13.3121 30.9819 13.4683 31.6476C13.9544 33.7197 15.2907 35.0618 17.329 35.5254C18.7413 35.8466 30.2605 35.8466 31.6728 35.5254C33.218 35.1741 34.4206 34.2731 35.049 32.9963C35.7045 31.6645 35.704 31.6706 35.704 24.4987C35.704 18.7348 35.6873 18.0049 35.5413 17.3737C35.1687 15.7642 34.2628 14.5435 32.9933 13.9407C31.7375 13.3443 31.4254 13.3135 25.7197 13.2246C24.9204 13.2121 22.8533 13.2285 21.1259 13.2611ZM31.204 15.6316C30.1299 16.111 29.89 17.5273 30.7472 18.3287C31.583 19.1102 32.9213 18.8279 33.3718 17.7752C33.9424 16.4419 32.5262 15.0415 31.204 15.6316ZM22.7302 17.6541C20.3888 18.2846 18.5426 20.014 17.7751 22.2956C17.5443 22.9817 17.5227 23.1695 17.5227 24.4987C17.5227 25.828 17.5443 26.0158 17.7751 26.7019C18.1361 27.775 18.627 28.5576 19.4853 29.428C20.3407 30.2955 21.2399 30.8679 22.3186 31.2315C22.9812 31.4549 23.1804 31.4773 24.5009 31.4771C25.8298 31.4769 26.0182 31.4554 26.704 31.2246C27.8001 30.8558 28.5712 30.366 29.4697 29.4675C30.3682 28.569 30.858 27.7979 31.2267 26.7019C31.4575 26.0158 31.4791 25.828 31.4791 24.4987C31.4791 23.1695 31.4575 22.9817 31.2267 22.2956C30.858 21.1996 30.3682 20.4285 29.4697 19.53C28.5664 18.6267 27.7914 18.136 26.704 17.7788C25.6588 17.4355 23.7626 17.376 22.7302 17.6541ZM23.4017 20.0493C21.729 20.4997 20.485 21.7568 20.0467 23.4397C19.2564 26.4739 21.9778 29.4798 25.1069 29.029C27.6359 28.6647 29.4092 26.3154 29.0257 23.8375C28.6135 21.1753 25.9307 19.3681 23.4017 20.0493ZM0.539062 24.4987C0.539062 25.3495 0.553313 25.6976 0.570656 25.2722C0.588 24.8467 0.588 24.1507 0.570656 23.7253C0.553313 23.3 0.539062 23.648 0.539062 24.4987Z" fill="url(#paint0_linear_1_973)"/>
</g>
<defs>
<linearGradient id="paint0_linear_1_973" x1="0.539062" y1="9.56617" x2="48.5947" y2="42.6573" gradientUnits="userSpaceOnUse">
<stop stop-color="#E9E12B"/>
<stop offset="0.470646" stop-color="#F44646"/>
<stop offset="1" stop-color="#FF61E6"/>
</linearGradient>
<clipPath id="clip0_1_973">
<rect width="48" height="48" fill="white" transform="translate(0.5 0.499023)"/>
</clipPath>
</defs>
</svg>
